<?xml version="1.0" encoding="UTF-8"?>
<!DOCTYPE svg PUBLIC "-//W3C//DTD SVG 1.1//EN" "http://www.w3.org/Graphics/SVG/1.1/DTD/svg11.dtd">
<!-- Creator: CorelDRAW -->
<svg xmlns="http://www.w3.org/2000/svg" xml:space="preserve" width="641px" height="641px" style="shape-rendering:geometricPrecision; text-rendering:geometricPrecision; image-rendering:optimizeQuality; fill-rule:evenodd; clip-rule:evenodd"
viewBox="0 0 641 641"
 xmlns:xlink="http://www.w3.org/1999/xlink"
 version="1.0">
 <defs>
  <style type="text/css">
   <![CDATA[
    .fil0 {fill:none}
    .fil1 {fill:#BF9037;fill-rule:nonzero}
   ]]>
  </style>
 </defs>
 <g id="Layer_x0020_1">
  <metadata id="CorelCorpID_0Corel-Layer"/>
  <g id="_377548888">
  </g>
  <g id="_377548240">
   <path id="_377547208" class="fil0" d="M320.5 0c88.5038,0 168.629,35.8737 226.628,93.8719 57.9994,57.9994 93.8719,138.124 93.8719,226.628 0,88.5038 -35.8737,168.629 -93.8719,226.628 -57.9994,57.9994 -138.124,93.8719 -226.628,93.8719 -88.5038,0 -168.63,-35.8737 -226.628,-93.8719 -57.9982,-57.9982 -93.8731,-138.124 -93.8731,-226.628 0,-88.5038 35.8749,-168.629 93.8731,-226.628 57.9982,-57.9982 138.124,-93.8719 226.628,-93.8719zm223.182 97.3183c-57.1171,-57.1171 -136.023,-92.4451 -223.182,-92.4451 -87.1585,0 -166.066,35.328 -223.183,92.4451 -57.1159,57.1171 -92.4439,136.024 -92.4439,223.182 0,87.1585 35.328,166.066 92.4439,223.183 57.1171,57.1159 136.024,92.4439 223.183,92.4439 87.1573,0 166.065,-35.328 223.182,-92.4439 57.1171,-57.1171 92.4451,-136.024 92.4451,-223.183 0,-87.1573 -35.328,-166.066 -92.4451,-223.182z"/>
   <path id="_377548120" class="fil1" d="M641 320.393l0.00118111 0.107481c0,88.5038 -35.8737,168.629 -93.8731,226.628 -57.9994,57.9982 -138.124,93.8719 -226.628,93.8719 -88.5038,0 -168.629,-35.8737 -226.628,-93.8719 -57.9982,-57.9994 -93.8719,-138.124 -93.8719,-226.628 0,-88.5038 35.8737,-168.63 93.8719,-226.628 57.9994,-57.9982 138.124,-93.8719 226.628,-93.8719l0 4.87324c-87.1573,0 -166.065,35.328 -223.182,92.4439 -57.1171,57.1171 -92.4451,136.024 -92.4451,223.183 0,87.1573 35.328,166.066 92.4451,223.183 57.1171,57.1159 136.023,92.4439 223.182,92.4439 87.1585,0 166.066,-35.328 223.182,-92.4439 57.1171,-57.1171 92.4451,-136.024 92.4451,-223.183l0 -0.107481 4.87324 0 0 0z"/>
  </g>
 </g>
</svg>
