<?xml version="1.0" encoding="UTF-8"?>
<!DOCTYPE svg PUBLIC "-//W3C//DTD SVG 1.1//EN" "http://www.w3.org/Graphics/SVG/1.1/DTD/svg11.dtd">
<svg xmlns="http://www.w3.org/2000/svg" version="1.1" width="281px" height="51px" style="shape-rendering:geometricPrecision; text-rendering:geometricPrecision; image-rendering:optimizeQuality; fill-rule:evenodd; clip-rule:evenodd" xmlns:xlink="http://www.w3.org/1999/xlink">
<g><path style="opacity:0.93" fill="#fefffe" d="M -0.5,-0.5 C 10.1667,-0.5 20.8333,-0.5 31.5,-0.5C 31.5,0.166667 31.5,0.833333 31.5,1.5C 30.6314,3.71702 30.298,6.05035 30.5,8.5C 26.753,8.39241 23.0863,8.89241 19.5,10C 23.332,9.9618 26.832,10.7951 30,12.5C 30.6667,17.1667 30.6667,21.8333 30,26.5C 28.3851,28.0107 28.3851,29.344 30,30.5C 30.6667,35.5 30.6667,40.5 30,45.5C 27.4815,47.3281 24.9815,48.9948 22.5,50.5C 14.8333,50.5 7.16667,50.5 -0.5,50.5C -0.5,33.5 -0.5,16.5 -0.5,-0.5 Z M 4.5,31.5 C 8.31121,30.3547 12.3112,30.1881 16.5,31C 14.5405,31.9309 12.5405,32.7643 10.5,33.5C 8.5504,32.6279 6.5504,31.9612 4.5,31.5 Z"/></g>
<g><path style="opacity:0.919" fill="#be9036" d="M 31.5,-0.5 C 42.1667,-0.5 52.8333,-0.5 63.5,-0.5C 63.5,16.5 63.5,33.5 63.5,50.5C 55.8333,50.5 48.1667,50.5 40.5,50.5C 37.6165,49.1215 35.1165,47.1215 33,44.5C 32.3333,39.8333 32.3333,35.1667 33,30.5C 34.2675,29.0903 34.2675,27.4236 33,25.5C 32.3333,21.1667 32.3333,16.8333 33,12.5C 36.5103,10.7815 40.3436,9.94812 44.5,10C 40.5598,8.98465 36.5598,8.48465 32.5,8.5C 32.8016,5.9407 32.4682,3.60737 31.5,1.5C 31.5,0.833333 31.5,0.166667 31.5,-0.5 Z M 46.5,31.5 C 50.3112,30.3547 54.3112,30.1881 58.5,31C 56.5405,31.9309 54.5405,32.7643 52.5,33.5C 50.5504,32.6279 48.5504,31.9612 46.5,31.5 Z"/></g>
<g><path style="opacity:0.684" fill="#fefffe" d="M 88.5,4.5 C 101.439,3.035 106.606,8.70167 104,21.5C 100.697,28.7733 95.1973,31.1066 87.5,28.5C 86.1667,26.1667 86.1667,23.8333 87.5,21.5C 88.9505,22.6554 89.9505,24.1554 90.5,26C 96.6211,26.5457 99.4544,23.7124 99,17.5C 96.2809,18.4438 93.4475,18.7771 90.5,18.5C 90.5,17.5 90.5,16.5 90.5,15.5C 93.5,15.5 96.5,15.5 99.5,15.5C 99.6366,9.23507 96.6366,6.73507 90.5,8C 89.6634,9.01127 89.33,10.1779 89.5,11.5C 88.5,11.5 87.5,11.5 86.5,11.5C 86.1849,8.78924 86.8516,6.45591 88.5,4.5 Z"/></g>
<g><path style="opacity:0.766" fill="#fefffe" d="M 207.5,5.5 C 214.863,5.16941 222.197,5.50274 229.5,6.5C 228.25,9.80699 227.584,13.307 227.5,17C 227.584,20.693 228.25,24.193 229.5,27.5C 226.5,28.8333 223.5,28.8333 220.5,27.5C 222.407,21.0495 223.073,14.3828 222.5,7.5C 219.5,7.5 216.5,7.5 213.5,7.5C 213.5,13.8333 213.5,20.1667 213.5,26.5C 214.675,26.281 215.675,26.6143 216.5,27.5C 213.5,28.8333 210.5,28.8333 207.5,27.5C 208.75,24.193 209.416,20.693 209.5,17C 209.347,12.9866 208.68,9.15328 207.5,5.5 Z"/></g>
<g><path style="opacity:0.694" fill="#fefffe" d="M 105.5,11.5 C 108.247,11.1866 110.914,11.52 113.5,12.5C 111.668,19.2434 112.668,19.9101 116.5,14.5C 116.167,13.8333 115.833,13.1667 115.5,12.5C 117.833,11.1667 120.167,11.1667 122.5,12.5C 120.273,14.6068 118.273,16.9401 116.5,19.5C 118.372,22.5819 120.705,25.2486 123.5,27.5C 121.579,28.641 119.579,28.8077 117.5,28C 116.12,26.0748 114.62,24.2415 113,22.5C 112.175,24.7008 112.675,26.5341 114.5,28C 111.5,28.6667 108.5,28.6667 105.5,28C 107.596,26.0659 108.596,23.5659 108.5,20.5C 108.333,18.5 108.167,16.5 108,14.5C 106.583,13.9221 105.75,12.9221 105.5,11.5 Z"/></g>
<g><path style="opacity:0.695" fill="#fefffe" d="M 127.5,11.5 C 130.5,11.5 133.5,11.5 136.5,11.5C 136.5,13.5 136.5,15.5 136.5,17.5C 134.027,17.264 132.36,15.9307 131.5,13.5C 127.257,16.257 126.423,19.9236 129,24.5C 130.085,25.2931 131.252,25.9598 132.5,26.5C 136.44,25.1636 137.106,25.9969 134.5,29C 124.785,29.6009 121.285,25.1009 124,15.5C 124.69,13.6498 125.856,12.3164 127.5,11.5 Z"/></g>
<g><path style="opacity:0.717" fill="#fefffe" d="M 137.5,11.5 C 143.868,11.1703 150.202,11.5037 156.5,12.5C 153.892,17.4814 153.892,22.4814 156.5,27.5C 153.833,28.8333 151.167,28.8333 148.5,27.5C 150.346,23.4183 151.013,19.085 150.5,14.5C 148.5,14.5 146.5,14.5 144.5,14.5C 144.334,18.5138 144.501,22.5138 145,26.5C 145.5,27 146,27.5 146.5,28C 143.5,28.6667 140.5,28.6667 137.5,28C 139.596,26.0659 140.596,23.5659 140.5,20.5C 140.333,18.5 140.167,16.5 140,14.5C 138.583,13.9221 137.75,12.9221 137.5,11.5 Z"/></g>
<g><path style="opacity:0.702" fill="#fefffe" d="M 161.5,11.5 C 169.117,9.78945 172.784,12.7895 172.5,20.5C 168.818,20.3347 165.152,20.5014 161.5,21C 162.167,22.3333 162.833,23.6667 163.5,25C 166.13,26.2403 168.797,26.7403 171.5,26.5C 168.302,29.809 164.635,30.309 160.5,28C 156.268,22.1556 156.601,16.6556 161.5,11.5 Z M 164.5,13.5 C 166.701,13.8584 168.035,15.1917 168.5,17.5C 166.604,18.4656 164.604,18.7989 162.5,18.5C 162.392,16.4862 163.058,14.8195 164.5,13.5 Z"/></g>
<g><path style="opacity:0.711" fill="#fefffe" d="M 174.5,11.5 C 178.695,11.9477 183.028,12.1144 187.5,12C 190.849,16.4784 191.349,21.3118 189,26.5C 186.358,29.0288 183.192,30.0288 179.5,29.5C 179.328,31.4918 179.995,33.1585 181.5,34.5C 178.833,35.8333 176.167,35.8333 173.5,34.5C 174.75,31.193 175.416,27.693 175.5,24C 175.416,20.307 174.75,16.807 173.5,13.5C 173.863,12.8165 174.196,12.1499 174.5,11.5 Z M 181.5,14.5 C 184.85,14.6513 186.516,16.4846 186.5,20C 186.416,24.7079 184.083,26.8746 179.5,26.5C 178.99,22.1869 179.657,18.1869 181.5,14.5 Z"/></g>
<g><path style="opacity:0.705" fill="#fefffe" d="M 191.5,11.5 C 196.5,11.5 201.5,11.5 206.5,11.5C 206.799,13.604 206.466,15.604 205.5,17.5C 204.281,16.7366 203.281,15.7366 202.5,14.5C 200.984,19.039 201.317,23.3723 203.5,27.5C 200.554,28.6548 197.554,28.8214 194.5,28C 195.025,27.3076 195.692,26.8076 196.5,26.5C 197.491,22.5546 197.824,18.5546 197.5,14.5C 195.362,14.703 193.695,15.703 192.5,17.5C 191.534,15.604 191.201,13.604 191.5,11.5 Z"/></g>
<g><path style="opacity:0.722" fill="#fefffe" d="M 231.5,11.5 C 235.695,11.9477 240.028,12.1144 244.5,12C 247.849,16.4784 248.349,21.3118 246,26.5C 243.358,29.0288 240.192,30.0288 236.5,29.5C 236.328,31.4918 236.995,33.1585 238.5,34.5C 235.833,35.8333 233.167,35.8333 230.5,34.5C 231.75,31.193 232.416,27.693 232.5,24C 232.416,20.307 231.75,16.807 230.5,13.5C 230.863,12.8165 231.196,12.1499 231.5,11.5 Z M 238.5,14.5 C 241.85,14.6513 243.516,16.4846 243.5,20C 243.416,24.7079 241.083,26.8746 236.5,26.5C 235.99,22.1869 236.657,18.1869 238.5,14.5 Z"/></g>
<g><path style="opacity:0.666" fill="#fefffe" d="M 252.5,11.5 C 260.45,9.46561 264.783,12.4656 265.5,20.5C 265.354,26.1682 262.521,29.1682 257,29.5C 254.186,29.5924 251.853,28.5924 250,26.5C 247.448,20.8495 248.282,15.8495 252.5,11.5 Z M 255.5,13.5 C 257.582,13.6243 259.082,14.6243 260,16.5C 260.667,19.1667 260.667,21.8333 260,24.5C 258.084,27.033 256.084,27.033 254,24.5C 252.053,20.5047 252.553,16.8381 255.5,13.5 Z"/></g>
<g><path style="opacity:0.532" fill="#fefffe" d="M 77.5,17.5 C 76.8333,17.5 76.5,17.8333 76.5,18.5C 75.1667,19.5 75.1667,20.5 76.5,21.5C 76.5,22.1667 76.8333,22.5 77.5,22.5C 77.5,23.1667 77.8333,23.5 78.5,23.5C 79.6772,25.1026 79.5106,26.436 78,27.5C 74.8208,25.6542 72.3208,23.1542 70.5,20C 72.2981,17.0341 74.6314,14.5341 77.5,12.5C 78.3081,12.8076 78.9747,13.3076 79.5,14C 78.1772,14.8159 77.5106,15.9826 77.5,17.5 Z"/></g>
<g><path style="opacity:0.558" fill="#fefffe" d="M 78.5,23.5 C 77.8333,23.5 77.5,23.1667 77.5,22.5C 76.8333,22.5 76.5,22.1667 76.5,21.5C 76.5,20.5 76.5,19.5 76.5,18.5C 77.1667,18.5 77.5,18.1667 77.5,17.5C 79.4788,16.1879 81.1455,14.5212 82.5,12.5C 83.2621,15.2095 82.5955,17.7095 80.5,20C 82.0814,21.828 83.4147,23.828 84.5,26C 84,26.5 83.5,27 83,27.5C 81.6288,25.9586 80.1288,24.6253 78.5,23.5 Z"/></g>
<g><path style="opacity:0.536" fill="#fefffe" d="M 273.5,17.5 C 273.5,18.1667 273.833,18.5 274.5,18.5C 274.167,19.8333 273.833,21.1667 273.5,22.5C 272.833,22.5 272.5,22.8333 272.5,23.5C 270.871,24.6253 269.371,25.9586 268,27.5C 267.667,27.1667 267.333,26.8333 267,26.5C 267.446,24.1171 268.612,21.9504 270.5,20C 269.167,18 267.833,16 266.5,14C 267.025,13.3076 267.692,12.8076 268.5,12.5C 269.855,14.5212 271.521,16.1879 273.5,17.5 Z"/></g>
<g><path style="opacity:0.552" fill="#fefffe" d="M 280.5,18.5 C 280.5,19.5 280.5,20.5 280.5,21.5C 277.586,22.9061 275.086,24.9061 273,27.5C 271.489,26.436 271.323,25.1026 272.5,23.5C 273.167,23.5 273.5,23.1667 273.5,22.5C 275.519,21.4617 275.853,20.1284 274.5,18.5C 273.833,18.5 273.5,18.1667 273.5,17.5C 273.489,15.9826 272.823,14.8159 271.5,14C 272.025,13.3076 272.692,12.8076 273.5,12.5C 275.853,14.5227 278.186,16.5227 280.5,18.5 Z"/></g>
<g><path style="opacity:0.451" fill="#be9036" d="M 95.5,50.5 C 94.1667,50.5 92.8333,50.5 91.5,50.5C 91.8807,49.0689 92.8807,48.2355 94.5,48C 93.6198,46.6439 93.2865,45.1439 93.5,43.5C 92.1779,43.67 91.0113,43.3366 90,42.5C 88.4222,43.7113 88.2555,45.0446 89.5,46.5C 91.1266,45.0811 91.6266,45.4144 91,47.5C 89.6439,48.3802 88.1439,48.7135 86.5,48.5C 85.8705,42.0287 88.5372,39.5287 94.5,41C 95.1258,41.7504 95.6258,42.5838 96,43.5C 96.5823,40.3323 97.5823,39.999 99,42.5C 102.93,41.0309 103.097,39.8643 99.5,39C 100.108,38.1301 100.941,37.6301 102,37.5C 104.026,38.5202 105.359,40.1868 106,42.5C 108,39.8333 110,39.8333 112,42.5C 113.548,38.953 116.048,37.6197 119.5,38.5C 119.023,39.4776 118.357,40.3109 117.5,41C 118.798,43.4992 118.464,45.8325 116.5,48C 113.173,49.1635 111.173,47.9968 110.5,44.5C 106.519,45.5057 106.519,46.5057 110.5,47.5C 106.684,49.2029 104.85,47.8695 105,43.5C 103.012,49.5221 100.678,49.8554 98,44.5C 96.878,46.4068 96.0447,48.4068 95.5,50.5 Z M 101.5,42.5 C 102.797,43.8488 102.63,45.1821 101,46.5C 100.805,45.1807 100.972,43.8474 101.5,42.5 Z M 114.5,43.5 C 115.776,44.3864 115.776,45.3864 114.5,46.5C 113.438,45.5754 113.438,44.5754 114.5,43.5 Z"/></g>
<g><path style="opacity:0.437" fill="#be9036" d="M 234.5,46.5 C 233.512,47.795 232.512,49.1283 231.5,50.5C 230.5,50.5 229.5,50.5 228.5,50.5C 228.5,49.8333 228.5,49.1667 228.5,48.5C 227.5,48.5 226.5,48.5 225.5,48.5C 225.649,47.448 225.483,46.448 225,45.5C 224.632,46.91 223.799,47.91 222.5,48.5C 220.576,48.433 218.576,48.0997 216.5,47.5C 215.423,43.3432 217.09,41.0099 221.5,40.5C 221.649,41.552 221.483,42.552 221,43.5C 220.333,42.1667 219.667,42.1667 219,43.5C 218.333,44.5 218.333,45.5 219,46.5C 220.356,45.6198 221.856,45.2865 223.5,45.5C 223.5,43.8333 223.5,42.1667 223.5,40.5C 226.011,40.838 228.345,40.838 230.5,40.5C 231.333,41.5 232.167,42.5 233,43.5C 233.249,42.376 233.749,41.376 234.5,40.5C 236.622,40.6225 238.789,40.6225 241,40.5C 241.333,41.1667 241.667,41.8333 242,42.5C 245.417,41.4009 248.917,39.7342 252.5,37.5C 253.594,38.868 253.26,40.0347 251.5,41C 252.191,42.0674 252.691,43.2341 253,44.5C 254.026,41.3072 256.192,39.9738 259.5,40.5C 259.162,43.0115 259.162,45.3448 259.5,47.5C 256.23,49.2143 253.73,48.5477 252,45.5C 251.592,47.4096 250.425,48.4096 248.5,48.5C 246.641,47.3099 244.808,47.3099 243,48.5C 242.055,48.0946 241.388,47.428 241,46.5C 240.692,47.3081 240.192,47.9747 239.5,48.5C 238.402,47.3845 237.235,47.3845 236,48.5C 234.97,48.1639 234.47,47.4972 234.5,46.5 Z M 228.5,48.5 C 227.145,46.3196 227.311,44.3196 229,42.5C 231.014,44.9699 230.847,46.9699 228.5,48.5 Z M 234.5,46.5 C 234.5,45.5 234.5,44.5 234.5,43.5C 237.962,43.8073 237.962,44.8073 234.5,46.5 Z M 243.5,43.5 C 245.465,43.9483 245.798,44.9483 244.5,46.5C 243.614,45.675 243.281,44.675 243.5,43.5 Z M 248.5,43.5 C 250.646,43.6964 250.812,44.6964 249,46.5C 248.517,45.552 248.351,44.552 248.5,43.5 Z"/></g>
<g><path style="opacity:0.444" fill="#be9036" d="M 119.5,40.5 C 120.675,40.281 121.675,40.6143 122.5,41.5C 121.494,42.3957 121.494,43.0623 122.5,43.5C 123.167,42.5 123.833,41.5 124.5,40.5C 124.833,41.3333 125.167,42.1667 125.5,43C 124.834,44.6687 124.834,46.1687 125.5,47.5C 124.675,48.3857 123.675,48.719 122.5,48.5C 122.541,44.7566 121.874,44.5899 120.5,48C 119.668,48.6877 119.002,48.521 118.5,47.5C 119.374,45.2534 119.708,42.9201 119.5,40.5 Z"/></g>
<g><path style="opacity:0.489" fill="#be9036" d="M 128.5,40.5 C 132.225,40.7796 133.392,42.7796 132,46.5C 130.556,48.1554 128.722,48.822 126.5,48.5C 126.107,45.4867 126.774,42.8201 128.5,40.5 Z M 129.5,42.5 C 130.797,43.8488 130.63,45.1821 129,46.5C 128.421,45.0715 128.588,43.7382 129.5,42.5 Z"/></g>
<g><path style="opacity:0.412" fill="#be9036" d="M 145.5,42.5 C 145.5,43.5 145.5,44.5 145.5,45.5C 144.009,48.0907 141.675,49.0907 138.5,48.5C 138.5,47.5 138.5,46.5 138.5,45.5C 139.376,45.6309 140.043,45.2975 140.5,44.5C 139.289,43.2798 139.289,42.1131 140.5,41C 142.495,40.3872 144.162,40.8872 145.5,42.5 Z"/></g>
<g><path style="opacity:0.412" fill="#be9036" d="M 145.5,45.5 C 146.833,44.5 146.833,43.5 145.5,42.5C 146.312,41.0069 147.645,40.3402 149.5,40.5C 150.5,40.8333 151.5,41.1667 152.5,41.5C 150.34,43.0935 150.173,44.7601 152,46.5C 152.438,42.5603 154.604,40.5603 158.5,40.5C 158.5,41.5 158.5,42.5 158.5,43.5C 156.897,43.3118 155.563,43.8118 154.5,45C 155.552,46.1192 156.719,46.6192 158,46.5C 159.017,44.6241 159.851,42.6241 160.5,40.5C 161.967,40.723 163.467,41.0563 165,41.5C 165.078,43.6565 165.245,45.6565 165.5,47.5C 164.675,48.3857 163.675,48.719 162.5,48.5C 162.657,47.1266 162.49,45.7932 162,44.5C 161.804,46.2861 160.971,47.6195 159.5,48.5C 155.2,47.2322 150.867,47.2322 146.5,48.5C 145.614,47.675 145.281,46.675 145.5,45.5 Z"/></g>
<g><path style="opacity:0.471" fill="#be9036" d="M 175.5,50.5 C 174.167,50.5 172.833,50.5 171.5,50.5C 172.459,47.8723 172.959,45.2056 173,42.5C 171.59,43.7875 170.09,44.9542 168.5,46C 169.449,46.6172 170.282,46.4506 171,45.5C 171.617,46.4491 171.451,47.2825 170.5,48C 169.207,48.49 167.873,48.6567 166.5,48.5C 166.055,45.6354 166.722,43.1354 168.5,41C 171.661,41.362 174.661,41.1953 177.5,40.5C 179.941,42.5282 180.108,44.8616 178,47.5C 176.933,48.1905 175.766,48.6905 174.5,49C 175.056,49.3826 175.389,49.8826 175.5,50.5 Z M 175.5,43.5 C 177.646,43.6964 177.812,44.6964 176,46.5C 175.517,45.552 175.351,44.552 175.5,43.5 Z"/></g>
<g><path style="opacity:0.454" fill="#be9036" d="M 181.5,40.5 C 183.939,41.0525 186.273,41.0525 188.5,40.5C 189.48,43.0865 189.813,45.7531 189.5,48.5C 188.5,48.5 187.5,48.5 186.5,48.5C 186.404,44.6893 185.738,44.6893 184.5,48.5C 183.224,43.3183 182.557,43.3183 182.5,48.5C 181.448,48.6495 180.448,48.4828 179.5,48C 180.22,45.5092 180.887,43.0092 181.5,40.5 Z"/></g>
<g><path style="opacity:0.466" fill="#be9036" d="M 191.5,40.5 C 192.931,40.8807 193.764,41.8807 194,43.5C 195,42.5 196,41.5 197,40.5C 196.952,42.926 197.119,45.2593 197.5,47.5C 196.675,48.3857 195.675,48.719 194.5,48.5C 194.322,44.8979 193.322,44.8979 191.5,48.5C 191.167,48 190.833,47.5 190.5,47C 191.252,44.6995 191.585,42.5328 191.5,40.5 Z"/></g>
<g><path style="opacity:0.473" fill="#be9036" d="M 201.5,40.5 C 202.5,40.5 203.5,40.5 204.5,40.5C 204.338,42.5273 204.505,44.5273 205,46.5C 206.284,45.4281 206.617,44.0948 206,42.5C 207.555,40.8542 209.221,40.5209 211,41.5C 211.078,43.6565 211.245,45.6565 211.5,47.5C 207.446,48.1644 203.113,48.4977 198.5,48.5C 197.829,45.014 198.829,42.3473 201.5,40.5 Z M 201.5,42.5 C 202.713,43.4971 202.546,44.4971 201,45.5C 200.53,44.4232 200.697,43.4232 201.5,42.5 Z"/></g>
<g><path style="opacity:0.3" fill="#be9036" d="M 138.5,45.5 C 136.712,45.7852 135.045,45.4519 133.5,44.5C 134.333,44.1667 135.167,43.8333 136,43.5C 137.376,43.6842 138.209,44.3509 138.5,45.5 Z"/></g>
</svg>
