<?xml version="1.0" encoding="UTF-8"?>
<!DOCTYPE svg PUBLIC "-//W3C//DTD SVG 1.1//EN" "http://www.w3.org/Graphics/SVG/1.1/DTD/svg11.dtd">
<!-- Creator: CorelDRAW -->
<svg xmlns="http://www.w3.org/2000/svg" xml:space="preserve" width="2480px" height="3508px" style="shape-rendering:geometricPrecision; text-rendering:geometricPrecision; image-rendering:optimizeQuality; fill-rule:evenodd; clip-rule:evenodd"
viewBox="0 0 2480 3507.43"
 xmlns:xlink="http://www.w3.org/1999/xlink"
 version="1.0">
 <defs>
  <style type="text/css">
   <![CDATA[
    .fil0 {fill:black}
   ]]>
  </style>
 </defs>
 <g id="Layer_x0020_1">
  <metadata id="CorelCorpID_0Corel-Layer"/>
  <path class="fil0" d="M1213.75 1727.05c-14.9981,20.8308 22.0803,70.8241 43.328,57.9092 7.91592,-4.99897 -3.33265,-17.4982 -12.9149,-14.5812 -4.99897,1.66632 -10.4148,-1.66632 -16.2475,-8.7485 -9.16537,-11.6654 -11.6654,-22.4971 -4.58328,-22.4971 5.41585,0 5.41585,-15.415 0.416876,-18.7476 -2.0832,-1.24945 -6.6653,1.66632 -9.99912,6.6653z"/>
  <path class="fil0" d="M1257.15 1732.94c5.98389,6.48343 11.9701,10.971 12.9657,9.97432 2.99253,-1.99345 -14.9603,-21.4426 -19.9475,-21.4426 -2.49299,0 0.997905,4.98716 6.98179,11.4706l0 -0.0023619z"/>
  <path class="fil0" d="M1255.83 1749.39c0,7.97851 4.34945,4.53604 3.19093,-1.58248 -0.564495,-2.98663 -1.58248,-5.97208 -3.90895,-8.98587 -3.72118,-4.82065 -8.99295,-8.02221 -12.6138,-8.02221 -1.49036,0 -1.41596,1.28724 0.825486,2.64179 4.67539,2.8272 11.2994,7.75295 12.5063,15.9488z"/>
 </g>
</svg>
