<?xml version="1.0" standalone="no"?>
<!DOCTYPE svg PUBLIC "-//W3C//DTD SVG 20010904//EN"
 "http://www.w3.org/TR/2001/REC-SVG-20010904/DTD/svg10.dtd">
<svg version="1.0" xmlns="http://www.w3.org/2000/svg"
 width="16.000000pt" height="17.000000pt" viewBox="0 0 16.000000 17.000000"
 preserveAspectRatio="xMidYMid meet">

<g transform="translate(0.000000,17.000000) scale(0.100000,-0.100000)"
fill="#000000" stroke="none">
<path d="M17 149 c-36 -50 53 -170 104 -139 19 12 -8 42 -31 35 -12 -4 -25 4
-39 21 -22 28 -28 54 -11 54 13 0 13 37 1 45 -5 3 -16 -4 -24 -16z"/>
<path d="M123 137 c12 -13 24 -22 26 -20 6 4 -30 43 -40 43 -5 0 2 -10 14 -23z"/>
<path d="M98 124 c12 -8 22 -23 23 -32 0 -11 2 -13 6 -4 6 14 -24 52 -41 52
-6 0 0 -7 12 -16z"/>
</g>
</svg>
