<?xml version="1.0" encoding="UTF-8"?>
<!DOCTYPE svg PUBLIC "-//W3C//DTD SVG 1.1//EN" "http://www.w3.org/Graphics/SVG/1.1/DTD/svg11.dtd">
<!-- Creator: CorelDRAW -->
<svg xmlns="http://www.w3.org/2000/svg" xml:space="preserve" width="2480px" height="3508px" style="shape-rendering:geometricPrecision; text-rendering:geometricPrecision; image-rendering:optimizeQuality; fill-rule:evenodd; clip-rule:evenodd"
viewBox="0 0 2480 3507.43"
 xmlns:xlink="http://www.w3.org/1999/xlink"
 version="1.1">
 <defs>
  <style type="text/css">
   <![CDATA[
    .fil0 {fill:#BF9037}
    .fil1 {fill:white}
    .fil3 {fill:#BF9037;fill-rule:nonzero}
    .fil2 {fill:white;fill-rule:nonzero}
   ]]>
  </style>
 </defs>
 <g id="Layer_x0020_1">
  <metadata id="CorelCorpID_0Corel-Layer"/>
  <path class="fil0" d="M1021.09 1479.71l60.0703 0 0 99.9865 -42.643 0 0 -1.40061 -2.50008 0 0 -3.36099 -7.34316 0 0 -4.76278 -6.76686 0 0.00708571 -0.624724c-1.08293,-10.6463 -0.95421,-19.7998 0.177143,-28.0712l0.197219 0 0.201943 0 0.209029 -0.0779429 4.5136 -1.67931 0.769981 -0.286971 0 -0.816038 0 -3.08583 0 -0.935314 -0.912876 -0.213752 -4.49234 -1.05459 -0.13581 -0.0318857 -0.132267 0 -0.177143 0c-1.25653,-9.38385 -1.12309,-20.0585 -0.178324,-31.731l35.6317 -2.3005 0 2.40442 0.333029 0 -14.6792 36.306 -0.0708571 -0.00118095c2.90396,4.17939 8.58434,7.50023 17.3021,7.40103 8.08952,-0.0932952 14.1726,-3.00198 16.466,-7.0432l0.0366095 -0.0141714 -0.0118095 -0.0295238 0.0118095 -0.0200762 -0.0200762 0 -14.7442 -36.5989 0.102743 0 0 -5.62488 -4.72617 0 0 0.705029 -35.2195 0.131086c-1.00971,-5.76069 -1.14198,-11.6064 -1.27661,-17.1687zm24.6831 58.2847l14.2907 -35.3471 14.3415 35.5963 -28.6322 -0.249181z"/>
  <path class="fil1" d="M1014.99 1479.71l-60.0703 0 0 99.9865 42.643 0 0 -1.40061 2.50008 0 0 -3.36099 7.34316 0 0 -4.76278 6.76686 0 -0.00708571 -0.624724c1.08293,-10.6463 0.95421,-19.7998 -0.177143,-28.0712l-0.197219 0 -0.200762 0 -0.21021 -0.0779429 -4.5136 -1.67931 -0.769981 -0.286971 0 -0.816038 0 -3.08583 0 -0.935314 0.912876 -0.213752 4.49234 -1.05459 0.13699 -0.0318857 0.131086 0 0.177143 0c1.25653,-9.38385 1.12309,-20.0585 0.178324,-31.731l-35.6317 -2.3005 0 2.40442 -0.333029 0 14.6792 36.306 0.0708571 -0.00118095c-2.90396,4.17939 -8.58434,7.50023 -17.3021,7.40103 -8.08952,-0.0932952 -14.1726,-3.00198 -16.466,-7.0432l-0.0366095 -0.0141714 0.0118095 -0.0295238 -0.0118095 -0.0200762 0.0200762 0 14.7442 -36.5989 -0.102743 0 0 -5.62488 4.72617 0 0 0.70621 35.2195 0.129905c1.00971,-5.76069 1.14198,-11.6064 1.27661,-17.1687zm-24.6831 58.2847l-28.6322 0.249181 14.3415 -35.5963 14.2907 35.3471z"/>
  <path class="fil2" d="M1104.22 1532.18c-3.82274,-4.76396 -7.57109,-8.76267 -11.2675,-12.0079l-0.115733 -1.14789c3.79086,-3.24526 7.58171,-7.24514 11.3832,-12.0091l1.4691 0.798324c-1.83638,3.84636 -4.0424,7.72461 -6.61451,11.6265 2.57211,4.03177 4.77813,8.00922 6.61451,11.943l-1.4691 0.797143zm12.9161 0c-3.82156,-4.76396 -7.57109,-8.76267 -11.2675,-12.0079l-0.115733 -1.14789c3.79086,-3.24526 7.58171,-7.24514 11.3832,-12.0091l1.47029 0.798324c-1.83756,3.84636 -4.0424,7.72461 -6.6157,11.6265 2.5733,4.03177 4.77813,8.00922 6.6157,11.943l-1.47029 0.797143z"/>
  <path id="1" class="fil2" d="M1480.56 1507.02c3.81211,4.76396 7.57227,8.76385 11.2568,12.0091l0.126362 1.14789c-3.79086,3.24526 -7.58171,7.24396 -11.3832,12.0079l-1.47029 -0.797143c1.83756,-3.84636 4.0424,-7.71516 6.60507,-11.6265 -2.56267,-4.03177 -4.7675,-8.00922 -6.60507,-11.943l1.47029 -0.798324zm12.9161 0c3.81211,4.76396 7.57227,8.76385 11.2568,12.0091l0.126362 1.14789c-3.79086,3.24526 -7.58171,7.24396 -11.3832,12.0079l-1.4691 -0.797143c1.83638,-3.84636 4.0424,-7.71516 6.60507,-11.6265 -2.56267,-4.03177 -4.76869,-8.00922 -6.60507,-11.943l1.4691 -0.798324z"/>
  <path id="12" class="fil2" d="M1131.44 1492.68l-2.02651 7.99859 -1.22819 0.197219 -1.88008 -10.1184 0.179505 -0.229105c4.81947,-1.12545 9.18781,-1.69467 13.1038,-1.69467 7.5085,0 13.1369,1.6616 16.8758,4.98362 3.74952,3.31021 5.61897,8.91619 5.61897,16.7837 0,7.94427 -2.05958,14.0522 -6.18583,18.3142 -4.11562,4.27269 -9.84914,6.40312 -17.1899,6.40312 -4.12743,0 -8.30682,-0.666057 -12.5287,-2.01116l-0.178324 -0.229105 1.56476 -11.0466 1.38644 -0.251543 2.21547 9.40747c2.50008,0.940038 5.1029,1.41006 7.812,1.41006 5.39813,0 9.44171,-1.50808 12.1508,-4.51242 2.7091,-3.00552 4.13806,-8.07535 4.27387,-15.2107l-20.6135 0 0 -3.00552 20.5297 0c-0.315314,-6.5779 -1.84819,-11.2875 -4.61989,-14.1502 -2.77288,-2.86381 -6.80465,-4.29512 -12.1189,-4.29512 -2.29931,0 -4.67303,0.426324 -7.14122,1.25653z"/>
  <path id="123" class="fil2" d="M1177.13 1525.88c0,1.27779 0,2.35954 0.0106286,3.24526 0.00944762,0.884533 0.0212571,1.57303 0.0413333,2.0643 0.0425143,0.601105 0.305867,0.973105 0.777067,1.12545l3.07756 0.92941 0.0625905 1.31086c-2.50952,-0.0649524 -4.75688,-0.098019 -6.74206,-0.098019 -2.04777,0 -4.44156,0.0330667 -7.17074,0.098019l-0.147619 -1.31086 3.55939 -1.09238c0.493638,-0.197219 0.75581,-0.524343 0.777067,-0.994362 0.0212571,-0.426324 0.0318857,-0.973105 0.0413333,-1.65097 0.0118095,-0.666057 0.0212571,-1.5187 0.0212571,-2.54495l0 -13.3755c0,-1.27779 -0.00944762,-2.36072 -0.0212571,-3.23463 -0.00944762,-0.873905 -0.0200762,-1.5624 -0.0413333,-2.05368 -0.0425143,-0.546781 -0.304686,-0.92941 -0.777067,-1.11482l-3.55939 -1.09238 -0.0637714 -1.31204c2.78232,0.0661333 5.20918,0.0992 7.25577,0.0992 2.01707,0 4.24316,-0.0330667 6.67947,-0.0992l0.126362 1.31204 -3.07756 0.928229c-0.493638,0.197219 -0.75581,0.524343 -0.777067,0.994362 -0.0200762,0.426324 -0.0318857,0.973105 -0.0413333,1.64979 -0.0106286,0.667238 -0.0106286,1.5187 -0.0106286,2.54613l0 6.05356 1.69112 0c1.20693,0 2.23672,-0.098019 3.08701,-0.2728 0.850286,-0.18541 1.57539,-0.524343 2.15288,-1.02743 0.588114,-0.501905 1.08175,-1.21284 1.48091,-2.13044 0.397981,-0.9176 0.766438,-2.10918 1.0912,-3.58419 0.346019,-1.5624 0.662514,-2.77524 0.934133,-3.66095 0.28461,-0.895162 0.62,-1.55177 1.01916,-1.97691 0.399162,-0.426324 0.914057,-0.688495 1.53406,-0.798324 0.629448,-0.108648 1.45848,-0.164152 2.47764,-0.164152 1.20693,0 2.7717,0.0555048 4.68366,0.164152l0.115733 1.66042c-1.12427,0 -2.07966,0.153524 -2.85672,0.438133 -0.778248,0.283429 -1.44903,0.666057 -2.00526,1.13608 -0.546781,0.470019 -1.01916,1.01562 -1.39707,1.62853 -0.377905,0.622362 -0.723924,1.26716 -1.02979,1.92259 -0.324762,0.688495 -0.650705,1.34392 -0.966019,1.96747 -0.325943,0.63299 -0.661333,1.2341 -1.03924,1.7915 -0.367276,0.568038 -0.777067,1.11482 -1.22819,1.61672 -0.451124,0.513714 -0.95539,0.983733 -1.50217,1.41006 0.819581,1.09238 1.62853,2.27333 2.44693,3.5405 0.808952,1.26716 1.57539,2.49181 2.28869,3.66095 0.777067,1.2896 1.52343,2.44693 2.22728,3.4968 0.713295,1.04869 1.41714,1.90133 2.11036,2.55676 0.556229,0.513714 1.10183,0.873905 1.64861,1.07112 0.536152,0.206667 1.1963,0.393257 1.9533,0.568038l0.114552 1.2459c-0.481829,0.0873905 -1.01798,0.141714 -1.57539,0.174781 -0.565676,0.0318857 -1.1656,0.0436952 -1.80568,0.0436952 -0.650705,0 -1.21756,-0.0118095 -1.70057,-0.0436952 -0.48301,-0.0330667 -0.914057,-0.0873905 -1.29196,-0.164152 -0.387352,-0.0767619 -0.725105,-0.174781 -1.03924,-0.317676 -0.304686,-0.141714 -0.609371,-0.305867 -0.914057,-0.491276 -0.702667,-0.470019 -1.39707,-1.1904 -2.07848,-2.15288 -0.693219,-0.961295 -1.39707,-2.04305 -2.11154,-3.26651 -0.597562,-1.0168 -1.20693,-2.05486 -1.82693,-3.11417 -0.629448,-1.0605 -1.30141,-2.09855 -2.01707,-3.12598 -0.187771,-0.2728 -0.355467,-0.513714 -0.503086,-0.720381 -0.157067,-0.197219 -0.324762,-0.372 -0.493638,-0.513714 -0.178324,-0.131086 -0.377905,-0.240914 -0.618819,-0.295238 -0.231467,-0.0661333 -0.536152,-0.098019 -0.903429,-0.098019l-2.15288 0 0 5.44183z"/>
  <path id="1234" class="fil2" d="M1224.02 1532.18c-1.2707,0.896343 -2.8461,1.65097 -4.72499,2.2627 -1.86945,0.601105 -3.7389,0.906971 -5.57646,0.906971 -4.43211,0 -7.93836,-1.35573 -10.5223,-4.05421 -2.58392,-2.69966 -3.8747,-6.29448 -3.8747,-10.7963 0,-4.89505 1.45966,-8.85124 4.40023,-11.8993 2.92994,-3.03741 6.7208,-4.5573 11.382,-4.5573 3.01497,0 5.93429,0.634171 8.75912,1.92377 -0.671962,2.852 -1.28133,5.78076 -1.80568,8.76385l-1.2093 0.196038 -2.48709 -7.6821c-0.945943,-0.337752 -2.00644,-0.512533 -3.20392,-0.512533 -3.05512,0 -5.43947,1.10301 -7.1613,3.33265 -1.72183,2.21783 -2.58392,5.14659 -2.58392,8.79573 0,4.29512 0.966019,7.46362 2.91931,9.50667 1.9533,2.05486 5.02968,3.0811 9.26221,3.0811 1.94267,0 4.03177,-0.206667 6.24842,-0.611733l0.178324 1.34392z"/>
  <path id="12345" class="fil2" d="M1238.03 1525.98c0,2.55676 0.0200762,4.32701 0.0519619,5.31074 0.0425143,0.601105 0.305867,0.971924 0.777067,1.11364l2.76225 0.842019 0.0625905 1.31086c-2.29931,-0.0649524 -4.44156,-0.098019 -6.42674,-0.098019 -2.02651,0 -4.4203,0.0330667 -7.17074,0.098019l-0.147619 -1.31086 3.55939 -1.09238c0.472381,-0.174781 0.734552,-0.503086 0.777067,-0.994362 0.0413333,-0.83139 0.0625905,-2.22964 0.0625905,-4.19592l0 -13.3424c0,-2.56857 -0.0212571,-4.33882 -0.0625905,-5.32137 -0.0425143,-0.568038 -0.304686,-0.940038 -0.777067,-1.11482l-3.55939 -1.09238 -0.0637714 -1.31204c2.82602,0.0661333 5.2824,0.0992 7.35025,0.0992l18.032 0c2.06785,0 4.49352,-0.0330667 7.25577,-0.0992l0.125181 1.31204 -3.53813 1.09238c-0.493638,0.174781 -0.75581,0.503086 -0.798324,0.994362 -0.0413333,0.83021 -0.0637714,2.22964 -0.0637714,4.19592l0 13.3424c0,2.56739 0.0224381,4.33764 0.0637714,5.32137 0.0425143,0.568038 0.304686,0.940038 0.798324,1.11482l3.53813 1.09238 0.0637714 1.31086c-2.81421,-0.0649524 -5.21981,-0.098019 -7.23451,-0.098019 -2.0277,0 -4.14869,0.0330667 -6.36533,0.098019l-0.125181 -1.31086 2.73981 -0.842019c0.473562,-0.141714 0.725105,-0.45821 0.767619,-0.950667 0.0425143,-0.840838 0.0625905,-2.23909 0.0625905,-4.22781l0 -19.527 -12.5169 0 0 18.2811z"/>
  <path id="123456" class="fil2" d="M1290.3 1532.18c-1.74309,1.13726 -3.53931,1.94503 -5.38632,2.43749 -1.84937,0.491276 -3.56057,0.73219 -5.13596,0.73219 -4.51596,0 -8.11787,-1.34392 -10.8057,-4.02114 -2.68785,-2.67722 -4.02114,-6.3925 -4.02114,-11.1565 0,-4.73208 1.28133,-8.6115 3.85345,-11.6158 2.5733,-3.01615 6.01695,-4.5136 10.3227,-4.5136 3.61135,0 6.41611,1.12545 8.432,3.37634 2.00644,2.25208 3.01379,5.36625 3.01379,9.33189 0,0.601105 -0.0318857,1.20221 -0.0932952,1.82575l-19.5011 0c0,4.58918 1.02861,7.8675 3.10827,9.84442 2.06903,1.96747 5.30366,2.96183 9.71333,2.96183 1.97337,0 4.07429,-0.197219 6.31101,-0.578667l0.188952 1.37581zm-5.84926 -16.2594l0 -0.961295c0,-3.03741 -0.461752,-5.20091 -1.39589,-6.50114 -0.935314,-1.30141 -2.3312,-1.95684 -4.16994,-1.95684 -2.44693,0 -4.30457,0.9176 -5.60716,2.75398 -1.29196,1.8352 -2.01589,4.05421 -2.18358,6.6653l13.3566 0z"/>
  <path id="1234567" class="fil2" d="M1294.05 1507.37l-0.158248 -1.08175c3.44484,-0.688495 6.69954,-1.43131 9.75585,-2.24027l0.304686 0.218476 0 3.13661c3.14015,-2.24027 6.17402,-3.35509 9.11459,-3.35509 3.81211,0 6.83653,1.32267 9.0827,3.98926 2.24853,2.65478 3.3728,6.10789 3.3728,10.3475 0,5.23398 -1.45021,9.36495 -4.33764,12.413 -2.88743,3.03859 -6.9936,4.5573 -12.3079,4.5573 -1.57539,0 -3.224,-0.164152 -4.92457,-0.480648l0 7.01486c0,2.13044 0.0212571,3.62789 0.0625905,4.48053 0.0425143,0.63299 0.315314,1.02625 0.83021,1.1467l4.03177 1.19158 0.0944762 1.31086c-3.20274,-0.0649524 -5.80674,-0.098019 -7.812,-0.098019 -2.01707,0 -4.39078,0.0330667 -7.14122,0.098019l-0.126362 -1.31086 3.53931 -1.09356c0.493638,-0.152343 0.75581,-0.480648 0.766438,-0.994362 0.0425143,-1.55059 0.0625905,-3.91131 0.0625905,-7.06918l0 -13.0365c0,-9.45234 -0.0413333,-15.4291 -0.115733,-17.9198l-4.09436 -1.22465zm9.90229 24.6193c1.78442,0.414514 3.50743,0.611733 5.1773,0.611733 3.40232,0 5.96499,-1.10419 7.68682,-3.33265 1.72183,-2.21783 2.58274,-5.39813 2.58274,-9.53973 0,-3.90069 -0.819581,-6.8507 -2.45756,-8.8288 -1.64861,-1.98872 -3.99989,-2.98309 -7.07745,-2.98309 -2.21547,0 -4.19002,0.470019 -5.91185,1.40888l0 22.6637z"/>
  <path id="12345678" class="fil2" d="M1331.55 1515.21l-1.22937 0.229105 -1.44903 -10.4349 0.21021 -0.230286c4.02114,0.0661333 7.80137,0.0992 11.3301,0.0992l5.6296 0c3.52869,0 7.30891,-0.0330667 11.3513,-0.0992l0.178324 0.230286 -1.96392 10.2058 -1.22819 0.229105 -1.84819 -7.81318 -6.5531 0 0 18.2811c0,2.39379 0.0212571,4.07665 0.0637714,5.0592 0.0413333,0.568038 0.294057,0.940038 0.765257,1.08175l3.71882 1.19158 0.0625905 1.31086c-2.39379,-0.0649524 -4.86198,-0.098019 -7.38213,-0.098019 -2.02651,0 -4.48408,0.0330667 -7.35025,0.098019l-0.126362 -1.31086 3.72709 -1.19158c0.473562,-0.141714 0.725105,-0.468838 0.767619,-0.961295 0.0413333,-0.83021 0.0614095,-2.22846 0.0614095,-4.1853l0 -19.2755 -6.6464 0 -2.0891 7.58408z"/>
  <path id="123456789" class="fil2" d="M1372.25 1530.97c0.0106286,0.568038 0.28461,0.940038 0.798324,1.08175l3.41295 1.12545 0.0944762 1.37699c-2.44693,-0.0649524 -4.88324,-0.098019 -7.33017,-0.098019 -2.4363,0 -4.97771,0.0330667 -7.62423,0.098019l-0.125181 -1.37699 3.78023 -1.1904c0.534971,-0.164152 0.819581,-0.492457 0.840838,-0.983733 0.0307048,-1.73718 0.0519619,-3.85699 0.0519619,-6.37006l0 -25.9632c0,-2.14225 -0.0212571,-3.9125 -0.0519619,-5.32137 -0.0212571,-0.55741 -0.273981,-0.9176 -0.746362,-1.08175l-3.81211 -1.25653 -0.0625905 -1.37699c2.64651,0.0873905 5.18674,0.131086 7.63368,0.131086l27.2824 0c2.44693,0 4.94583,-0.0436952 7.5085,-0.131086l0.126362 1.37699 -3.8747 1.25653c-0.473562,0.164152 -0.725105,0.524343 -0.745181,1.08175 -0.0318857,1.40888 -0.0543238,3.17912 -0.0543238,5.32137l0 25.9632c0,2.51307 0.0224381,4.63288 0.0543238,6.37006 0.0200762,0.491276 0.303505,0.819581 0.839657,0.983733l3.71646 1.1904 0.0637714 1.37699c-2.7091,-0.0649524 -5.29303,-0.098019 -7.75059,-0.098019 -2.44693,0 -4.8301,0.0330667 -7.17192,0.098019l-0.126362 -1.37699 3.47554 -1.12545c0.516076,-0.141714 0.787695,-0.513714 0.798324,-1.08175 0.0637714,-1.71474 0.0956571,-3.82392 0.0956571,-6.33699l0 -31.9518 -21.1603 0 0 31.9518c0,2.51307 0.0212571,4.62225 0.0625905,6.33699z"/>
  <path id="12345678910" class="fil2" d="M1407.41 1507.37l-0.158248 -1.08175c3.44484,-0.688495 6.69954,-1.43131 9.75585,-2.24027l0.304686 0.218476 0 3.13661c3.14015,-2.24027 6.17402,-3.35509 9.11459,-3.35509 3.81211,0 6.83653,1.32267 9.0827,3.98926 2.24853,2.65478 3.3728,6.10789 3.3728,10.3475 0,5.23398 -1.45021,9.36495 -4.33764,12.413 -2.88743,3.03859 -6.9936,4.5573 -12.3079,4.5573 -1.57539,0 -3.224,-0.164152 -4.92457,-0.480648l0 7.01486c0,2.13044 0.0212571,3.62789 0.0625905,4.48053 0.0425143,0.63299 0.315314,1.02625 0.83021,1.1467l4.03177 1.19158 0.0944762 1.31086c-3.20274,-0.0649524 -5.80674,-0.098019 -7.812,-0.098019 -2.01707,0 -4.39078,0.0330667 -7.14122,0.098019l-0.126362 -1.31086 3.53931 -1.09356c0.493638,-0.152343 0.75581,-0.480648 0.766438,-0.994362 0.0425143,-1.55059 0.0625905,-3.91131 0.0625905,-7.06918l0 -13.0365c0,-9.45234 -0.0413333,-15.4291 -0.115733,-17.9198l-4.09436 -1.22465zm9.90229 24.6193c1.78442,0.414514 3.50743,0.611733 5.1773,0.611733 3.40232,0 5.96499,-1.10419 7.68682,-3.33265 1.72183,-2.21783 2.58274,-5.39813 2.58274,-9.53973 0,-3.90069 -0.819581,-6.8507 -2.45756,-8.8288 -1.64861,-1.98872 -3.99989,-2.98309 -7.07745,-2.98309 -2.21547,0 -4.19002,0.470019 -5.91185,1.40888l0 22.6637z"/>
  <path id="1234567891011" class="fil2" d="M1449.98 1519.34c0,3.98926 0.725105,7.24514 2.15288,9.74758 1.43958,2.51307 3.5712,3.7696 6.40549,3.7696 2.64651,0 4.6624,-1.11482 6.03939,-3.32202 1.38526,-2.2072 2.07848,-5.47371 2.07848,-9.81253 0,-4.07547 -0.725105,-7.28766 -2.18476,-9.63775 -1.45848,-2.33829 -3.57002,-3.51806 -6.33109,-3.51806 -2.62644,0 -4.64232,1.05931 -6.04884,3.1685 -1.4077,2.11981 -2.11154,5.32137 -2.11154,9.60469zm22.9565 -0.283429c0,4.86198 -1.4077,8.79573 -4.23253,11.7906 -2.82484,3.00434 -6.40549,4.50179 -10.7526,4.50179 -4.24316,0 -7.67737,-1.41006 -10.292,-4.23962 -2.61463,-2.83074 -3.91604,-6.52358 -3.91604,-11.0915 0,-4.69901 1.36518,-8.53356 4.10617,-11.5166 2.72918,-2.97246 6.36297,-4.45928 10.8671,-4.45928 4.27387,0 7.70808,1.36636 10.3133,4.10853 2.60282,2.74335 3.90659,6.38187 3.90659,10.9061z"/>
  <path class="fil3" d="M1135.6 1571.75l0.342476 0.940038c-2.5733,2.02061 -4.74743,3.03269 -6.51886,3.03269 -0.940038,0 -1.62145,-0.337752 -2.0525,-1.00735 -0.426324,-0.6696 -0.636533,-1.51634 -0.636533,-2.54495 0,-1.70411 0.453486,-3.46373 1.36164,-5.26823 0.906971,-1.8045 2.0088,-3.18739 3.30312,-4.14987 1.01798,-0.741638 2.1635,-1.11836 3.43657,-1.11836 0.801867,0 1.40533,0.149981 1.82103,0.453486 0.40861,0.304686 0.614095,0.6696 0.614095,1.10183 0,0.337752 -0.11101,0.60819 -0.327124,0.8184 -0.214933,0.21021 -0.514895,0.315314 -0.906971,0.315314 -0.376724,0 -0.863276,-0.171238 -1.45611,-0.513714 -0.618819,-0.370819 -1.12899,-0.553867 -1.5435,-0.553867 -0.525524,0 -1.05695,0.243276 -1.57657,0.7192 -0.526705,0.481829 -1.02389,1.41714 -1.49981,2.80004 -0.475924,1.38408 -0.714476,2.77288 -0.714476,4.16758 0,1.02389 0.199581,1.81985 0.597562,2.37962 0.294057,0.436952 0.702667,0.653067 1.2341,0.653067 1.26244,0 2.77288,-0.741638 4.52187,-2.22491z"/>
  <path id="1" class="fil3" d="M1137.94 1564.92l-0.5208 -0.762895 1.20103 -0.808952c1.16796,-0.801867 1.98636,-1.31676 2.46229,-1.5435 0.271619,-0.127543 0.5208,-0.193676 0.747543,-0.193676 0.226743,0 0.442857,0.133448 0.647162,0.393257 0.951848,1.19512 1.75371,2.81657 2.40206,4.85253 0.647162,2.03714 0.973105,4.0117 0.973105,5.9272 0,0.249181 -0.0106286,0.624724 -0.0330667,1.13371 1.82693,-3.36453 2.73981,-6.03112 2.73981,-8.00686 0,-0.414514 -0.0944762,-0.957752 -0.277524,-1.63798 -0.193676,-0.758171 -0.292876,-1.30023 -0.292876,-1.62145 0,-0.315314 0.0992,-0.575124 0.304686,-0.78061 0.1984,-0.204305 0.447581,-0.30941 0.752267,-0.30941 0.376724,0 0.680229,0.1488 0.912876,0.442857 0.232648,0.286971 0.348381,0.702667 0.348381,1.24472 0,1.3947 -0.315314,3.13189 -0.956571,5.21272 -0.636533,2.08084 -1.63798,4.31638 -3.00552,6.71253 -1.36636,2.39615 -2.61699,4.1723 -3.74598,5.33436 -1.12899,1.16206 -2.21901,1.99227 -3.27596,2.49535 -1.05105,0.504267 -2.04777,0.753448 -2.98781,0.753448 -0.714476,0 -1.25063,-0.133448 -1.61672,-0.399162 -0.35901,-0.25981 -0.542057,-0.581029 -0.542057,-0.945943 0,-0.325943 0.144076,-0.603467 0.420419,-0.834933 0.282248,-0.232648 0.664876,-0.349562 1.1408,-0.349562 0.364914,0 0.868,0.0720381 1.50453,0.21021 0.68141,0.155886 1.14552,0.227924 1.3947,0.227924 0.658971,0 1.35573,-0.277524 2.09147,-0.825486 1.00735,-0.758171 1.8045,-1.65924 2.39143,-2.70556 0.585752,-1.05105 0.884533,-2.108 0.884533,-3.18149 0,-1.49981 -0.220838,-3.3043 -0.65779,-5.4123 -0.438133,-2.108 -1.05695,-3.71882 -1.8541,-4.83128 -0.403886,-0.575124 -0.83021,-0.863276 -1.2837,-0.863276 -0.531429,0 -1.2837,0.36019 -2.26861,1.07349z"/>
  <path id="12" class="fil3" d="M1153.13 1552.84l0.354286 -0.453486c6.35825,0.486552 9.53383,4.17821 9.53383,11.0726 0,3.45901 -0.762895,6.36415 -2.29577,8.71543 -1.52697,2.35246 -3.42594,3.52514 -5.70046,3.52514 -1.21638,0 -2.1576,-0.420419 -2.81067,-1.25653 -0.653067,-0.834933 -0.97901,-1.82575 -0.97901,-2.95947 0,-2.38552 0.752267,-4.5939 2.2627,-6.61333 1.50571,-2.01943 3.12126,-3.03269 4.83718,-3.03269 1.00617,0 1.84819,0.498362 2.52842,1.4939 -0.0106286,-3.19802 -0.60819,-5.62724 -1.79269,-7.28175 -1.17859,-1.65451 -3.16023,-2.72328 -5.93783,-3.20983zm7.14949 14.593c0,-1.32857 -0.193676,-2.4245 -0.575124,-3.28187 -0.387352,-0.863276 -0.968381,-1.2896 -1.74309,-1.2896 -1.1904,0 -2.14697,0.7688 -2.87798,2.31821 -0.73101,1.54469 -1.09592,3.1933 -1.09592,4.94229 0,1.20103 0.193676,2.22491 0.581029,3.07048 0.393257,0.852648 0.957752,1.27307 1.70411,1.27307 1.1349,0 2.08674,-0.746362 2.85554,-2.24145 0.764076,-1.49863 1.15143,-3.09291 1.15143,-4.79112z"/>
  <path id="123" class="fil3" d="M1173.03 1571.2l0.536152 0.713295c-2.65006,2.51779 -4.91985,3.77432 -6.81173,3.77432 -0.769981,0 -1.35101,-0.25981 -1.75962,-0.774705 -0.403886,-0.519619 -0.609371,-1.35573 -0.609371,-2.50126 0,-2.31349 0.702667,-4.61516 2.10918,-6.90621 1.57657,-2.60046 3.46373,-3.90659 5.6603,-3.90659 0.764076,0 1.35101,0.193676 1.75962,0.575124 0.403886,0.387352 0.603467,0.912876 0.603467,1.58248 0,0.703848 -0.237371,1.3947 -0.725105,2.07611 -0.486552,0.680229 -1.35573,1.3888 -2.61227,2.12453 -0.624724,0.354286 -1.96983,0.995543 -4.02232,1.92613 -0.0944762,0.585752 -0.144076,1.13962 -0.144076,1.67105 0,0.7688 0.121638,1.30023 0.364914,1.60491 0.243276,0.303505 0.597562,0.453486 1.06286,0.453486 0.442857,0 0.92941,-0.121638 1.46084,-0.370819 0.708571,-0.337752 1.75371,-1.01798 3.12716,-2.04187zm-5.67211 -2.35246c1.73718,-0.779429 3.04331,-1.61554 3.92312,-2.51189 0.591657,-0.630629 0.890438,-1.25063 0.890438,-1.86472 0,-0.465295 -0.121638,-0.836114 -0.364914,-1.11246 -0.243276,-0.276343 -0.55859,-0.414514 -0.951848,-0.414514 -0.397981,0 -0.785333,0.154705 -1.16796,0.453486 -0.503086,0.403886 -0.935314,1.00735 -1.27779,1.82103 -0.498362,1.18331 -0.846743,2.39497 -1.05105,3.62907z"/>
  <path id="1234" class="fil3" d="M1180.18 1564.47c1.69349,-1.86 3.3043,-2.78941 4.81474,-2.78941 0.840838,0 1.47147,0.337752 1.88716,1.01326 0.414514,0.674324 0.624724,1.55531 0.624724,2.63352 0,2.56267 -0.8184,4.93048 -2.46229,7.1117 -1.64389,2.17413 -3.46373,3.26415 -5.46781,3.26415 -1.03451,0 -1.84229,-0.304686 -2.41269,-0.906971 -0.575124,-0.603467 -0.857371,-1.3451 -0.857371,-2.21901 0,-0.736914 0.144076,-1.77143 0.436952,-3.09882l1.9096 -8.57726c0.747543,-3.37044 1.9037,-5.61189 3.46964,-6.72907 1.57185,-1.11246 2.98309,-1.66632 4.23371,-1.66632 0.35901,0 0.824305,0.0496 1.41006,0.16061 2.17531,0.387352 3.52042,0.581029 4.03413,0.581029 0.393257,0 0.88099,-0.282248 1.46202,-0.857371l0.486552 0.35901c-0.647162,1.11246 -1.24,1.8104 -1.76552,2.09737 -0.531429,0.288152 -1.12899,0.432229 -1.80331,0.432229 -0.852648,0 -2.45166,-0.21021 -4.79821,-0.636533 -0.741638,-0.127543 -1.26126,-0.193676 -1.55531,-0.193676 -0.531429,0 -0.940038,0.25981 -1.23882,0.78061 -0.298781,0.519619 -0.658971,1.70411 -1.07939,3.5464l-1.32857 5.69455zm-1.73718 8.15093c0,0.564495 0.193676,1.04042 0.575124,1.42777 0.387352,0.393257 0.807771,0.586933 1.27307,0.586933 1.26716,0 2.35718,-0.984914 3.27006,-2.94411 0.912876,-1.9592 1.36754,-3.81802 1.36754,-5.56701 0,-0.6696 -0.127543,-1.27779 -0.387352,-1.82575 -0.26099,-0.547962 -0.648343,-0.819581 -1.16796,-0.819581 -0.553867,0 -1.21756,0.36019 -2.0029,1.07939 -0.78061,0.7192 -1.46674,1.9037 -2.04777,3.55821 -0.586933,1.65451 -0.87981,3.15432 -0.87981,4.50415z"/>
  <path id="12345" class="fil3" d="M1203.33 1572.44c-2.1635,2.25798 -3.7637,3.39288 -4.79821,3.39288 -0.303505,0 -0.585752,-0.139352 -0.851467,-0.40979 -0.265714,-0.271619 -0.399162,-0.642438 -0.399162,-1.11836 0,-0.547962 0.11101,-1.26126 0.327124,-2.14107l0.758171 -3.20983 -4.50533 0 -1.4939 6.30865 -2.41269 0c0.0224381,-0.127543 0.133448,-0.5704 0.337752,-1.31204 0.154705,-0.542057 0.436952,-1.65451 0.863276,-3.3421l1.4384 -5.78785c0.0779429,-0.298781 0.116914,-0.537333 0.116914,-0.714476 0,-0.320038 -0.116914,-0.486552 -0.343657,-0.486552 -0.475924,0 -1.30613,0.586933 -2.49535,1.75371l-0.714476 -0.552686c2.26979,-2.11981 3.98453,-3.17676 5.14187,-3.17676 0.591657,0 0.890438,0.393257 0.890438,1.1845 0,0.758171 -0.354286,2.46819 -1.06758,5.14069l4.52069 0 1.57185 -5.90476 2.30168 0 -1.52225 5.66149c-0.896343,3.28187 -1.34392,5.15131 -1.34392,5.60598 0,0.425143 0.154705,0.636533 0.470019,0.636533 0.387352,0 1.27779,-0.708571 2.6725,-2.12571l0.537333 0.597562z"/>
  <path id="123456" class="fil3" d="M1212.57 1561.63c1.05695,0 1.93676,0.420419 2.63943,1.26716 0.703848,0.840838 1.05695,2.0147 1.05695,3.51451 0,2.40088 -0.840838,4.55375 -2.52842,6.46335 -1.68758,1.90842 -3.46964,2.86027 -5.3509,2.86027 -1.15733,0 -2.08674,-0.375543 -2.79531,-1.13371 -0.70739,-0.758171 -1.06168,-1.78796 -1.06168,-3.09882 0,-2.26979 0.647162,-4.36598 1.94267,-6.28621 1.63208,-2.39143 3.66331,-3.58655 6.09726,-3.58655zm-1.37699 1.21756c-0.918781,0 -1.8104,0.658971 -2.66777,1.96983 -0.857371,1.31204 -1.2896,3.12716 -1.2896,5.43947 0,1.40651 0.265714,2.51307 0.797143,3.32084 0.387352,0.597562 0.906971,0.890438 1.55531,0.890438 0.906971,0 1.73128,-0.55859 2.47882,-1.68168 0.951848,-1.46084 1.42777,-3.27124 1.42777,-5.43474 0,-1.62145 -0.222019,-2.7776 -0.658971,-3.46964 -0.436952,-0.690857 -0.984914,-1.03451 -1.6427,-1.03451z"/>
  <polygon id="1234567" class="fil3" points="1218.13,1567.81 1225.64,1567.81 1225.25,1569.41 1217.71,1569.41 "/>
  <path id="12345678" class="fil3" d="M1235.84 1568.94l-4.25025 0 0.25981 -0.968381 4.18411 0c0.126362,-0.834933 0.193676,-1.49981 0.193676,-1.99817 0,-1.99699 -0.603467,-2.99844 -1.81512,-2.99844 -1.35101,0 -2.79531,0.7192 -4.32819,2.1576l-0.713295 -0.569219c2.0643,-1.94267 4.10027,-2.91695 6.10907,-2.91695 1.10655,0 1.93676,0.276343 2.49063,0.836114 0.55859,0.55859 0.834933,1.50453 0.834933,2.84373 0,2.48472 -0.807771,4.83718 -2.41741,7.05619 -1.61082,2.2131 -3.51451,3.31966 -5.7229,3.31966 -1.13371,0 -2.0029,-0.265714 -2.61699,-0.801867 -0.60819,-0.537333 -0.912876,-1.16796 -0.912876,-1.9037 0,-0.382629 0.115733,-0.692038 0.354286,-0.941219 0.237371,-0.249181 0.525524,-0.370819 0.857371,-0.370819 0.292876,0 0.553867,0.0944762 0.78061,0.288152 0.226743,0.193676 0.342476,0.436952 0.342476,0.729829 0,0.11101 -0.0106286,0.249181 -0.0330667,0.4216 -0.0106286,0.132267 -0.0165333,0.248 -0.0165333,0.35901 0,0.399162 0.16061,0.714476 0.486552,0.941219 0.321219,0.226743 0.703848,0.337752 1.1349,0.337752 2.15878,0 3.75779,-1.93676 4.79821,-5.8221z"/>
  <path id="123456789" class="fil3" d="M1245.21 1567.63c0.546781,-0.40979 1.23291,-1.11836 2.0584,-2.12571 1.5435,-1.90842 2.73863,-3.14842 3.57474,-3.70229 0.834933,-0.55859 1.64861,-0.834933 2.43985,-0.834933 0.918781,0 1.37817,0.354286 1.37817,1.06758 0,0.692038 -0.415695,1.04042 -1.25063,1.04042l-0.453486 -0.0165333c-0.238552,-0.0224381 -0.415695,-0.0330667 -0.531429,-0.0330667 -0.642438,0 -1.27307,0.183048 -1.89779,0.542057 -0.63181,0.364914 -1.4443,1.10183 -2.45166,2.2131 -0.957752,1.07939 -1.66042,1.78206 -2.10328,2.10918 1.46674,0.692038 2.4741,1.3888 3.02206,2.09147 0.547962,0.702667 1.37699,2.43512 2.50598,5.2021 0.807771,1.98046 1.58248,3.36926 2.31349,4.17821 0.735733,0.801867 1.62145,1.20575 2.66187,1.20575 0.442857,0 0.851467,-0.11101 1.22229,-0.325943 0.376724,-0.216114 0.559771,-0.454667 0.559771,-0.708571 0,-0.133448 -0.0614095,-0.36019 -0.177143,-0.686133 -0.11101,-0.288152 -0.16061,-0.50899 -0.16061,-0.664876 0,-0.237371 0.0944762,-0.453486 0.282248,-0.651886 0.187771,-0.199581 0.420419,-0.304686 0.686133,-0.304686 0.315314,0 0.575124,0.121638 0.791238,0.364914 0.21021,0.243276 0.315314,0.564495 0.315314,0.968381 0,0.807771 -0.364914,1.51044 -1.09592,2.09737 -0.729829,0.591657 -1.64861,0.885714 -2.76697,0.885714 -1.62145,0 -3.08701,-0.625905 -4.39905,-1.87653 -1.31086,-1.24472 -2.63943,-3.79086 -3.97863,-7.62541 -0.381448,-1.10065 -0.741638,-1.90842 -1.07939,-2.41859 -0.342476,-0.503086 -0.87981,-0.956571 -1.61554,-1.36046l-1.63208 7.00541 -2.45166 0 1.13371 -4.36008c1.06286,-4.12861 1.58838,-6.46335 1.58838,-7.00659 0,-0.249181 -0.115733,-0.370819 -0.354286,-0.370819 -0.453486,0 -1.30495,0.658971 -2.56149,1.97573l-0.504267 -0.564495c1.0853,-1.17859 2.14815,-2.03006 3.1933,-2.55676 1.05105,-0.519619 1.80922,-0.785333 2.27451,-0.785333 0.432229,0 0.647162,0.171238 0.647162,0.503086 0,0.121638 -0.0720381,0.487733 -0.21021,1.10183l-0.973105 4.42739z"/>
  <path id="12345678910" class="fil3" d="M1263.88 1571.75l0.342476 0.940038c-2.5733,2.02061 -4.74743,3.03269 -6.51886,3.03269 -0.940038,0 -1.62145,-0.337752 -2.0525,-1.00735 -0.426324,-0.6696 -0.636533,-1.51634 -0.636533,-2.54495 0,-1.70411 0.453486,-3.46373 1.36164,-5.26823 0.906971,-1.8045 2.0088,-3.18739 3.30312,-4.14987 1.01798,-0.741638 2.1635,-1.11836 3.43657,-1.11836 0.801867,0 1.40533,0.149981 1.82103,0.453486 0.40861,0.304686 0.614095,0.6696 0.614095,1.10183 0,0.337752 -0.11101,0.60819 -0.327124,0.8184 -0.214933,0.21021 -0.514895,0.315314 -0.906971,0.315314 -0.376724,0 -0.863276,-0.171238 -1.45611,-0.513714 -0.618819,-0.370819 -1.12899,-0.553867 -1.5435,-0.553867 -0.525524,0 -1.05695,0.243276 -1.57657,0.7192 -0.526705,0.481829 -1.02389,1.41714 -1.49981,2.80004 -0.475924,1.38408 -0.714476,2.77288 -0.714476,4.16758 0,1.02389 0.199581,1.81985 0.597562,2.37962 0.294057,0.436952 0.702667,0.653067 1.2341,0.653067 1.26244,0 2.77288,-0.741638 4.52187,-2.22491z"/>
  <path id="1234567891011" class="fil3" d="M1266.76 1565.43l-0.552686 -0.5704c1.3829,-1.31676 2.48354,-2.19185 3.30903,-2.6229 0.8184,-0.436952 1.52107,-0.653067 2.108,-0.653067 0.226743,0 0.403886,0.0496 0.531429,0.1488 0.132267,0.0944762 0.193676,0.21139 0.193676,0.337752 0,0.100381 -0.0224381,0.271619 -0.0779429,0.5208l-0.729829 3.25943c1.10065,-1.22347 2.48472,-2.36309 4.14987,-3.42004 0.885714,-0.553867 1.61554,-0.83021 2.18594,-0.83021 0.426324,0 0.752267,0.138171 0.990819,0.40979 0.237371,0.265714 0.35901,0.65779 0.35901,1.16206 0,0.337752 -0.0496,0.713295 -0.1488,1.13962 -0.171238,0.696762 -0.625905,2.22964 -1.36164,4.588 -0.692038,2.20248 -1.03451,3.66804 -1.03451,4.39314 0,0.216114 0.0271619,0.376724 0.0932952,0.481829 0.0673143,0.11101 0.16061,0.165333 0.277524,0.165333 0.315314,0 0.807771,-0.303505 1.47737,-0.906971 0.475924,-0.432229 0.945943,-0.836114 1.42187,-1.20103l0.40979 0.581029c-0.996724,1.10655 -2.03124,1.99227 -3.09882,2.66187 -0.68141,0.431048 -1.24472,0.647162 -1.68758,0.647162 -0.40979,0 -0.725105,-0.1488 -0.951848,-0.447581 -0.226743,-0.294057 -0.343657,-0.78061 -0.343657,-1.45021 0,-0.962476 0.597562,-3.3539 1.79859,-7.18255 0.370819,-1.36164 0.553867,-2.15288 0.553867,-2.37962 0,-0.337752 -0.199581,-0.504267 -0.603467,-0.504267 -0.432229,0 -0.984914,0.227924 -1.66632,0.68141 -1.01798,0.6696 -1.86472,1.46084 -2.54495,2.36781 -0.432229,0.581029 -0.797143,1.51162 -1.09002,2.78941l-1.31204 5.65558 -2.41269 0c0.454667,-1.62145 0.846743,-3.17086 1.17859,-4.65413l1.4443 -6.15867c0.0555048,-0.249181 0.0838476,-0.426324 0.0838476,-0.537333 0,-0.286971 -0.11101,-0.436952 -0.327124,-0.436952 -0.171238,0 -0.420419,0.116914 -0.741638,0.343657 -0.674324,0.442857 -1.30023,0.97901 -1.88126,1.62145z"/>
  <path id="123456789101112" class="fil3" d="M1290.04 1571.2l0.536152 0.713295c-2.65006,2.51779 -4.91985,3.77432 -6.81173,3.77432 -0.769981,0 -1.35101,-0.25981 -1.75962,-0.774705 -0.403886,-0.519619 -0.609371,-1.35573 -0.609371,-2.50126 0,-2.31349 0.702667,-4.61516 2.10918,-6.90621 1.57657,-2.60046 3.46373,-3.90659 5.6603,-3.90659 0.764076,0 1.35101,0.193676 1.75962,0.575124 0.403886,0.387352 0.603467,0.912876 0.603467,1.58248 0,0.703848 -0.237371,1.3947 -0.725105,2.07611 -0.486552,0.680229 -1.35573,1.3888 -2.61227,2.12453 -0.624724,0.354286 -1.96983,0.995543 -4.02232,1.92613 -0.0944762,0.585752 -0.144076,1.13962 -0.144076,1.67105 0,0.7688 0.121638,1.30023 0.364914,1.60491 0.243276,0.303505 0.597562,0.453486 1.06286,0.453486 0.442857,0 0.92941,-0.121638 1.46084,-0.370819 0.708571,-0.337752 1.75371,-1.01798 3.12716,-2.04187zm-5.67211 -2.35246c1.73718,-0.779429 3.04331,-1.61554 3.92312,-2.51189 0.591657,-0.630629 0.890438,-1.25063 0.890438,-1.86472 0,-0.465295 -0.121638,-0.836114 -0.364914,-1.11246 -0.243276,-0.276343 -0.55859,-0.414514 -0.951848,-0.414514 -0.397981,0 -0.785333,0.154705 -1.16796,0.453486 -0.503086,0.403886 -0.935314,1.00735 -1.27779,1.82103 -0.498362,1.18331 -0.846743,2.39497 -1.05105,3.62907z"/>
  <path id="12345678910111213" class="fil3" d="M1293.07 1565.65l-0.636533 -0.653067c0.984914,-1.17387 1.9651,-2.04777 2.93821,-2.60636 0.974286,-0.564495 1.81512,-0.846743 2.5296,-0.846743 0.270438,0 0.480648,0.0720381 0.636533,0.204305 0.159429,0.138171 0.237371,0.331848 0.237371,0.592838 0,0.315314 -0.0330667,0.635352 -0.105105,0.962476 -0.0720381,0.331848 -0.288152,1.11246 -0.658971,2.34655 1.65451,-1.65451 2.7835,-2.6784 3.39288,-3.06575 1.01208,-0.658971 1.94267,-0.990819 2.7835,-0.990819 0.552686,0 1.01798,0.25981 1.3947,0.78061 0.381448,0.519619 0.569219,1.30023 0.569219,2.35128 0,2.61227 -0.813676,5.1029 -2.44575,7.45417 -1.63208,2.35718 -3.4413,3.53577 -5.41703,3.53577 -0.78061,0 -1.55531,-0.21021 -2.33592,-0.630629l-1.37817 5.3509c-0.0826667,0.321219 -0.126362,0.586933 -0.126362,0.791238 0,0.399162 0.1488,0.686133 0.453486,0.858552 0.465295,0.270438 1.4443,0.492457 2.9323,0.6696l-0.21021 0.807771c-1.73718,-0.138171 -3.10945,-0.21021 -4.10027,-0.21021 -1.02861,0 -2.35718,0.0720381 -3.98926,0.21021l0.21021 -0.807771c0.824305,-0.0885714 1.41596,-0.315314 1.79269,-0.686133 0.370819,-0.366095 0.6696,-1.01916 0.896343,-1.9592l2.93821 -12.3079c0.547962,-2.28987 0.824305,-3.56293 0.824305,-3.82274 0,-0.282248 -0.132267,-0.4216 -0.403886,-0.4216 -0.475924,0 -1.3829,0.697943 -2.7221,2.09265zm3.27596 7.64785c0.852648,0.857371 1.72655,1.2837 2.6229,1.2837 1.30023,0 2.43512,-1.01326 3.41413,-3.03269 0.98019,-2.02061 1.46674,-3.99516 1.46674,-5.91539 0,-0.62 -0.138171,-1.0853 -0.414514,-1.40651 -0.277524,-0.315314 -0.642438,-0.475924 -1.10773,-0.475924 -0.519619,0 -1.10655,0.255086 -1.75371,0.764076 -1.00145,0.786514 -1.77143,1.57185 -2.30168,2.34655 -0.376724,0.564495 -0.736914,1.53878 -1.06876,2.92168l-0.857371 3.51451z"/>
  <path id="1234567891011121314" class="fil3" d="M1307.87 1565.36l-0.486552 -0.647162c1.06758,-1.07349 2.08556,-1.85882 3.04804,-2.36781 0.963657,-0.510171 1.71592,-0.764076 2.26979,-0.764076 0.226743,0 0.397981,0.0496 0.50899,0.1488 0.115733,0.0944762 0.171238,0.232648 0.171238,0.405067 0,0.214933 -0.0885714,0.630629 -0.25981,1.25063 -0.249181,0.906971 -0.420419,1.62027 -0.5208,2.1517 2.59573,-2.63352 4.57737,-3.95619 5.95436,-3.95619 0.354286,0 0.625905,0.0992 0.807771,0.292876 0.183048,0.193676 0.277524,0.504267 0.277524,0.924686 0,0.453486 -0.16061,1.22819 -0.487733,2.31821 1.2341,-1.2837 2.30286,-2.19657 3.20983,-2.7339 0.908152,-0.530248 1.61554,-0.801867 2.12571,-0.801867 0.453486,0 0.801867,0.132267 1.05105,0.393257 0.249181,0.25981 0.375543,0.65779 0.375543,1.19512 0,0.325943 -0.0543238,0.708571 -0.165333,1.15025 -0.105105,0.448762 -0.504267,1.79859 -1.1845,4.05657 -0.852648,2.80004 -1.27779,4.46636 -1.27779,5.00842 0,0.370819 0.1488,0.552686 0.453486,0.552686 0.204305,0 0.403886,-0.0661333 0.597562,-0.193676 0.642438,-0.453486 1.29432,-1.01798 1.96392,-1.68758l0.537333 0.581029c-0.226743,0.188952 -0.658971,0.564495 -1.2837,1.1349 -0.863276,0.78061 -1.46084,1.26716 -1.78206,1.46084 -0.624724,0.370819 -1.15615,0.552686 -1.58838,0.552686 -0.325943,0 -0.614095,-0.159429 -0.857371,-0.480648 -0.249181,-0.315314 -0.376724,-0.758171 -0.376724,-1.31676 0,-0.5208 0.0779429,-1.12899 0.226743,-1.82693 0.149981,-0.696762 0.597562,-2.2627 1.32857,-4.69192 0.553867,-1.82693 0.83021,-2.93349 0.83021,-3.32674 0,-0.364914 -0.16061,-0.546781 -0.486552,-0.546781 -0.271619,0 -0.63181,0.132267 -1.0853,0.403886 -0.92941,0.55859 -1.71002,1.24472 -2.33474,2.0584 -0.432229,0.55859 -0.813676,1.45493 -1.1349,2.6725 -0.725105,2.6725 -1.26716,4.84781 -1.62145,6.53539l-2.30168 0 2.41269 -9.90583c0.171238,-0.713295 0.25981,-1.12309 0.25981,-1.2341 0,-0.171238 -0.0436952,-0.303505 -0.127543,-0.392076 -0.0885714,-0.0944762 -0.21021,-0.138171 -0.375543,-0.138171 -0.288152,0 -0.747543,0.226743 -1.36164,0.680229 -1.06758,0.764076 -1.83756,1.51044 -2.30758,2.22491 -0.470019,0.7192 -0.873905,1.81512 -1.21166,3.28659l-1.2459 5.47844 -2.31821 0 1.83166 -7.73051c0.542057,-2.24145 0.807771,-3.4531 0.807771,-3.65269 0,-0.249181 -0.0932952,-0.370819 -0.286971,-0.370819 -0.4216,0 -1.28488,0.614095 -2.5792,1.84819z"/>
  <path id="123456789101112131415" class="fil3" d="M1342.1 1572.44c-2.1635,2.25798 -3.7637,3.39288 -4.79821,3.39288 -0.303505,0 -0.585752,-0.139352 -0.851467,-0.40979 -0.265714,-0.271619 -0.399162,-0.642438 -0.399162,-1.11836 0,-0.547962 0.11101,-1.26126 0.327124,-2.14107l0.758171 -3.20983 -4.50533 0 -1.4939 6.30865 -2.41269 0c0.0224381,-0.127543 0.133448,-0.5704 0.337752,-1.31204 0.154705,-0.542057 0.436952,-1.65451 0.863276,-3.3421l1.4384 -5.78785c0.0779429,-0.298781 0.116914,-0.537333 0.116914,-0.714476 0,-0.320038 -0.116914,-0.486552 -0.343657,-0.486552 -0.475924,0 -1.30613,0.586933 -2.49535,1.75371l-0.714476 -0.552686c2.26979,-2.11981 3.98453,-3.17676 5.14187,-3.17676 0.591657,0 0.890438,0.393257 0.890438,1.1845 0,0.758171 -0.354286,2.46819 -1.06758,5.14069l4.52069 0 1.57185 -5.90476 2.30168 0 -1.52225 5.66149c-0.896343,3.28187 -1.34392,5.15131 -1.34392,5.60598 0,0.425143 0.154705,0.636533 0.470019,0.636533 0.387352,0 1.27779,-0.708571 2.6725,-2.12571l0.537333 0.597562z"/>
  <path id="12345678910111213141516" class="fil3" d="M1354.36 1561.35l1.06758 -0.226743 -1.21638 4.10617c-0.481829,1.62617 -0.941219,3.50743 -1.37817,5.63787 -0.238552,1.15733 -0.354286,1.9037 -0.354286,2.23672 0,0.336571 0.132267,0.503086 0.403886,0.503086 0.171238,0 0.448762,-0.11101 0.83021,-0.337752 0.6696,-0.403886 1.31086,-0.896343 1.92495,-1.4939l0.5208 0.630629c-1.2341,1.12309 -2.01943,1.80922 -2.36899,2.04777 -0.690857,0.470019 -1.34983,0.824305 -1.97455,1.05105 -0.40979,0.149981 -0.813676,0.226743 -1.20103,0.226743 -0.282248,0 -0.492457,-0.0661333 -0.630629,-0.193676 -0.144076,-0.132267 -0.21021,-0.320038 -0.21021,-0.569219 0,-0.16061 0.0436952,-0.382629 0.126362,-0.664876l0.648343 -2.20248c-0.93059,1.11246 -2.03714,2.07021 -3.32084,2.86735 -0.791238,0.497181 -1.51634,0.746362 -2.17531,0.746362 -0.624724,0 -1.10655,-0.220838 -1.4443,-0.663695 -0.453486,-0.597562 -0.680229,-1.37227 -0.680229,-2.33474 0,-1.14552 0.31059,-2.41859 0.918781,-3.82392 0.60819,-1.40651 1.42777,-2.6843 2.45638,-3.82983 1.02389,-1.14552 2.10918,-1.98636 3.2429,-2.52842 0.875086,-0.40979 1.99817,-0.615276 3.37044,-0.615276 0.348381,0 0.696762,0.0224381 1.05695,0.0673143l0.387352 -0.636533zm-2.0088 2.48472c-0.586933,-0.121638 -1.07939,-0.183048 -1.47737,-0.183048 -0.974286,0 -1.82103,0.271619 -2.54495,0.803048 -0.725105,0.536152 -1.3947,1.49863 -2.02061,2.88861 -0.62,1.3888 -0.92941,2.7717 -0.92941,4.15577 0,0.735733 0.121638,1.26716 0.370819,1.5872 0.249181,0.327124 0.575124,0.487733 0.974286,0.487733 0.746362,0 1.5435,-0.399162 2.40088,-1.20693 0.852648,-0.801867 1.47737,-1.96392 1.87653,-3.47436l1.34983 -5.05802z"/>
  <path id="1234567891011121314151617" class="fil3" d="M1357 1572.02c0.270438,0.996724 0.470019,1.59901 0.597562,1.80922 0.132267,0.21021 0.331848,0.315314 0.602286,0.315314 0.504267,0 1.09592,-0.55859 1.76552,-1.67105 0.68141,-1.13371 1.26716,-1.9037 1.76552,-2.30168 0.498362,-0.397981 1.32857,-0.747543 2.48472,-1.03451l0 -0.216114 -0.426324 0c-1.37227,0 -2.40206,-0.25981 -3.08819,-0.785333 -0.686133,-0.5208 -1.02861,-1.17387 -1.02861,-1.9533 0,-1.20693 0.746362,-2.20838 2.24617,-2.99962 1.4939,-0.786514 3.47554,-1.17859 5.94373,-1.17859l2.89924 0.0602286 -1.52107 5.66149c-0.885714,3.28187 -1.32857,5.15131 -1.32857,5.60598 0,0.425143 0.149981,0.636533 0.453486,0.636533 0.387352,0 1.27897,-0.708571 2.67368,-2.12571l0.536152 0.597562c-2.1635,2.25798 -3.75779,3.39288 -4.7864,3.39288 -0.354286,0 -0.653067,-0.149981 -0.896343,-0.442857 -0.243276,-0.288152 -0.366095,-0.7192 -0.366095,-1.2955 0,-0.569219 0.105105,-1.26126 0.321219,-2.07493l0.747543 -2.80594c-0.908152,0 -1.64389,0.26099 -2.20248,0.769981 -0.564495,0.513714 -1.2955,1.56594 -2.19185,3.15432 -1.02389,1.79269 -2.17413,2.69493 -3.4531,2.69493 -0.50899,0 -0.962476,-0.177143 -1.36046,-0.5208 -0.399162,-0.348381 -0.797143,-1.34983 -1.20103,-3.01615l0.813676 -0.276343zm11.1222 -8.56072c-0.653067,-0.183048 -1.36636,-0.276343 -2.1576,-0.276343 -0.918781,0 -1.74899,0.270438 -2.49653,0.813676 -0.746362,0.542057 -1.11718,1.23882 -1.11718,2.108 0,1.49981 0.995543,2.25208 2.99962,2.25208 0.331848,0 0.824305,-0.0389714 1.47147,-0.115733l1.30023 -4.78168z"/>
  <path id="123456789101112131415161718" class="fil3" d="M1388.97 1571.75l0.342476 0.940038c-2.5733,2.02061 -4.74743,3.03269 -6.51886,3.03269 -0.940038,0 -1.62145,-0.337752 -2.0525,-1.00735 -0.426324,-0.6696 -0.636533,-1.51634 -0.636533,-2.54495 0,-1.70411 0.453486,-3.46373 1.36164,-5.26823 0.906971,-1.8045 2.0088,-3.18739 3.30312,-4.14987 1.01798,-0.741638 2.1635,-1.11836 3.43657,-1.11836 0.801867,0 1.40533,0.149981 1.82103,0.453486 0.40861,0.304686 0.614095,0.6696 0.614095,1.10183 0,0.337752 -0.11101,0.60819 -0.327124,0.8184 -0.214933,0.21021 -0.514895,0.315314 -0.906971,0.315314 -0.376724,0 -0.863276,-0.171238 -1.45611,-0.513714 -0.618819,-0.370819 -1.12899,-0.553867 -1.5435,-0.553867 -0.525524,0 -1.05695,0.243276 -1.57657,0.7192 -0.526705,0.481829 -1.02389,1.41714 -1.49981,2.80004 -0.475924,1.38408 -0.714476,2.77288 -0.714476,4.16758 0,1.02389 0.199581,1.81985 0.597562,2.37962 0.294057,0.436952 0.702667,0.653067 1.2341,0.653067 1.26244,0 2.77288,-0.741638 4.52187,-2.22491z"/>
  <path id="12345678910111213141516171819" class="fil3" d="M1405.57 1572.41c-2.03124,2.19657 -3.65269,3.2925 -4.86434,3.2925 -0.331848,0 -0.653067,-0.154705 -0.963657,-0.470019 -0.30941,-0.315314 -0.525524,-1.12899 -0.65779,-2.44575l-0.663695 -6.77867c-1.55531,4.1723 -2.85082,6.83417 -3.87352,7.9797 -1.02979,1.14552 -2.14815,1.71474 -3.35981,1.71474 -0.514895,0 -0.940038,-0.138171 -1.27307,-0.414514 -0.325943,-0.271619 -0.492457,-0.636533 -0.492457,-1.09002 0,-0.432229 0.139352,-0.786514 0.415695,-1.06286 0.276343,-0.276343 0.60819,-0.414514 0.995543,-0.414514 0.205486,0 0.50899,0.0826667 0.908152,0.243276 0.387352,0.1488 0.696762,0.226743 0.923505,0.226743 0.543238,0 1.06876,-0.25981 1.58838,-0.78061 0.5208,-0.514895 1.30023,-1.99227 2.34655,-4.42149 1.04042,-2.43512 1.56004,-3.77905 1.56004,-4.04004 0,-0.331848 -0.1488,-0.503086 -0.453486,-0.503086 -0.658971,0 -1.63798,0.642438 -2.9323,1.93086l-0.697943 -0.569219c2.28042,-2.10918 4.03413,-3.16023 5.26823,-3.16023 0.465295,0 0.7688,0.144076 0.918781,0.432229 0.144076,0.282248 0.25981,0.901067 0.348381,1.85291l0.647162 7.79783c0.127543,1.47147 0.481829,2.2072 1.05223,2.2072 0.292876,0 0.774705,-0.303505 1.4443,-0.906971 0.680229,-0.62 1.14552,-1.01798 1.3947,-1.20103l0.420419 0.581029z"/>
  <path id="1234567891011121314151617181920" class="fil3" d="M1405.41 1564.92l-0.5208 -0.762895 1.20103 -0.808952c1.16796,-0.801867 1.98636,-1.31676 2.46229,-1.5435 0.271619,-0.127543 0.5208,-0.193676 0.747543,-0.193676 0.226743,0 0.442857,0.133448 0.647162,0.393257 0.951848,1.19512 1.75371,2.81657 2.40206,4.85253 0.647162,2.03714 0.973105,4.0117 0.973105,5.9272 0,0.249181 -0.0106286,0.624724 -0.0330667,1.13371 1.82693,-3.36453 2.73981,-6.03112 2.73981,-8.00686 0,-0.414514 -0.0944762,-0.957752 -0.277524,-1.63798 -0.193676,-0.758171 -0.292876,-1.30023 -0.292876,-1.62145 0,-0.315314 0.0992,-0.575124 0.304686,-0.78061 0.1984,-0.204305 0.447581,-0.30941 0.752267,-0.30941 0.376724,0 0.680229,0.1488 0.912876,0.442857 0.232648,0.286971 0.348381,0.702667 0.348381,1.24472 0,1.3947 -0.315314,3.13189 -0.956571,5.21272 -0.636533,2.08084 -1.63798,4.31638 -3.00552,6.71253 -1.36636,2.39615 -2.61699,4.1723 -3.74598,5.33436 -1.12899,1.16206 -2.21901,1.99227 -3.27596,2.49535 -1.05105,0.504267 -2.04777,0.753448 -2.98781,0.753448 -0.714476,0 -1.25063,-0.133448 -1.61672,-0.399162 -0.35901,-0.25981 -0.542057,-0.581029 -0.542057,-0.945943 0,-0.325943 0.144076,-0.603467 0.420419,-0.834933 0.282248,-0.232648 0.664876,-0.349562 1.1408,-0.349562 0.364914,0 0.868,0.0720381 1.50453,0.21021 0.68141,0.155886 1.14552,0.227924 1.3947,0.227924 0.658971,0 1.35573,-0.277524 2.09147,-0.825486 1.00735,-0.758171 1.8045,-1.65924 2.39143,-2.70556 0.585752,-1.05105 0.884533,-2.108 0.884533,-3.18149 0,-1.49981 -0.220838,-3.3043 -0.65779,-5.4123 -0.438133,-2.108 -1.05695,-3.71882 -1.8541,-4.83128 -0.403886,-0.575124 -0.83021,-0.863276 -1.2837,-0.863276 -0.531429,0 -1.2837,0.36019 -2.26861,1.07349z"/>
  <path id="123456789101112131415161718192021" class="fil3" d="M1428.82 1575.27l-2.46229 0 1.84819 -7.23215c-0.846743,0.315314 -1.56594,0.752267 -2.17413,1.31676 -0.603467,0.55859 -1.3947,1.46674 -2.36899,2.7221 -1.17269,1.52225 -2.06903,2.5296 -2.6784,3.02206 -0.614095,0.492457 -1.25063,0.741638 -1.90842,0.741638 -0.514895,0 -0.974286,-0.177143 -1.37817,-0.5208 -0.399162,-0.348381 -0.797143,-1.34983 -1.20103,-3.01615l0.813676 -0.292876c0.292876,1.11246 0.514895,1.74899 0.663695,1.9037 0.149981,0.16061 0.337752,0.237371 0.553867,0.237371 0.647162,0 1.5435,-0.752267 2.68903,-2.25208 1.41714,-1.84819 2.46819,-2.97128 3.16023,-3.36453 0.690857,-0.397981 1.83638,-0.729829 3.43657,-0.995543 -0.475924,-0.415695 -0.941219,-1.15615 -1.3947,-2.24145 -0.442857,-1.05695 -0.819581,-1.72065 -1.1349,-1.99227 -0.30941,-0.270438 -0.636533,-0.403886 -0.968381,-0.403886 -0.177143,0 -0.465295,0.0885714 -0.87981,0.271619 -0.288152,0.144076 -0.547962,0.216114 -0.774705,0.216114 -0.725105,0 -1.09002,-0.327124 -1.09002,-0.974286 0,-0.432229 0.216114,-0.791238 0.636533,-1.07939 0.420419,-0.288152 0.87981,-0.431048 1.37817,-0.431048 0.746362,0 1.3888,0.25981 1.93676,0.779429 0.542057,0.5208 1.08411,1.60491 1.60964,3.25943 0.271619,0.819581 0.68141,1.58838 1.2341,2.30286l1.26716 -5.17493 2.37962 0 -1.37817 5.52804c0.531429,-0.397981 1.20103,-1.09474 2.0088,-2.09147 1.58248,-1.94267 2.79531,-3.18739 3.64206,-3.72945 0.845562,-0.537333 1.64861,-0.807771 2.39025,-0.807771 0.906971,0 1.36164,0.354286 1.36164,1.06758 0,0.692038 -0.405067,1.04042 -1.21284,1.04042 -0.132267,0 -0.270438,-0.00590476 -0.425143,-0.0165333 -0.232648,-0.0224381 -0.399162,-0.0330667 -0.481829,-0.0330667 -0.78061,0 -1.48918,0.204305 -2.12453,0.60819 -0.636533,0.403886 -1.41124,1.12427 -2.31939,2.14697 -0.962476,1.06876 -1.66514,1.77143 -2.108,2.10918 1.47147,0.692038 2.47882,1.3888 3.02088,2.09147 0.547962,0.702667 1.38408,2.43512 2.50716,5.2021 0.840838,2.0643 1.63798,3.48027 2.39025,4.23844 0.753448,0.764076 1.59901,1.14552 2.54023,1.14552 0.475924,0 0.896343,-0.11101 1.27307,-0.325943 0.370819,-0.216114 0.55859,-0.45939 0.55859,-0.725105 0,-0.154705 -0.0555048,-0.36019 -0.165333,-0.62 -0.116914,-0.282248 -0.177143,-0.5208 -0.177143,-0.714476 0,-0.237371 0.0932952,-0.453486 0.282248,-0.651886 0.193676,-0.199581 0.420419,-0.304686 0.690857,-0.304686 0.282248,0 0.537333,0.115733 0.764076,0.342476 0.226743,0.226743 0.337752,0.559771 0.337752,0.990819 0,0.807771 -0.366095,1.51044 -1.09592,2.09737 -0.725105,0.591657 -1.64861,0.885714 -2.76107,0.885714 -1.25653,0 -2.39615,-0.354286 -3.42004,-1.06286 -1.02979,-0.708571 -1.89307,-1.69821 -2.59573,-2.97718 -0.702667,-1.27307 -1.48328,-3.09291 -2.33474,-5.4619 -0.50899,-1.42777 -0.92941,-2.33002 -1.26244,-2.70556 -0.336571,-0.382629 -0.807771,-0.735733 -1.41006,-1.07349l-1.68876 7.00541z"/>
  <path id="12345678910111213141516171819202122" class="fil3" d="M1444.74 1564.47c1.69349,-1.86 3.3043,-2.78941 4.81474,-2.78941 0.840838,0 1.47147,0.337752 1.88716,1.01326 0.414514,0.674324 0.624724,1.55531 0.624724,2.63352 0,2.56267 -0.8184,4.93048 -2.46229,7.1117 -1.64389,2.17413 -3.46373,3.26415 -5.46781,3.26415 -1.03451,0 -1.84229,-0.304686 -2.41269,-0.906971 -0.575124,-0.603467 -0.857371,-1.3451 -0.857371,-2.21901 0,-0.736914 0.144076,-1.77143 0.436952,-3.09882l1.9096 -8.57726c0.747543,-3.37044 1.9037,-5.61189 3.46964,-6.72907 1.57185,-1.11246 2.98309,-1.66632 4.23371,-1.66632 0.35901,0 0.824305,0.0496 1.41006,0.16061 2.17531,0.387352 3.52042,0.581029 4.03413,0.581029 0.393257,0 0.88099,-0.282248 1.46202,-0.857371l0.486552 0.35901c-0.647162,1.11246 -1.24,1.8104 -1.76552,2.09737 -0.531429,0.288152 -1.12899,0.432229 -1.80331,0.432229 -0.852648,0 -2.45166,-0.21021 -4.79821,-0.636533 -0.741638,-0.127543 -1.26126,-0.193676 -1.55531,-0.193676 -0.531429,0 -0.940038,0.25981 -1.23882,0.78061 -0.298781,0.519619 -0.658971,1.70411 -1.07939,3.5464l-1.32857 5.69455zm-1.73718 8.15093c0,0.564495 0.193676,1.04042 0.575124,1.42777 0.387352,0.393257 0.807771,0.586933 1.27307,0.586933 1.26716,0 2.35718,-0.984914 3.27006,-2.94411 0.912876,-1.9592 1.36754,-3.81802 1.36754,-5.56701 0,-0.6696 -0.127543,-1.27779 -0.387352,-1.82575 -0.26099,-0.547962 -0.648343,-0.819581 -1.16796,-0.819581 -0.553867,0 -1.21756,0.36019 -2.0029,1.07939 -0.78061,0.7192 -1.46674,1.9037 -2.04777,3.55821 -0.586933,1.65451 -0.87981,3.15432 -0.87981,4.50415z"/>
  <path id="1234567891011121314151617181920212223" class="fil3" d="M1464.87 1561.35l1.06758 -0.226743 -1.21638 4.10617c-0.481829,1.62617 -0.941219,3.50743 -1.37817,5.63787 -0.238552,1.15733 -0.354286,1.9037 -0.354286,2.23672 0,0.336571 0.132267,0.503086 0.403886,0.503086 0.171238,0 0.448762,-0.11101 0.83021,-0.337752 0.6696,-0.403886 1.31086,-0.896343 1.92495,-1.4939l0.5208 0.630629c-1.2341,1.12309 -2.01943,1.80922 -2.36899,2.04777 -0.690857,0.470019 -1.34983,0.824305 -1.97455,1.05105 -0.40979,0.149981 -0.813676,0.226743 -1.20103,0.226743 -0.282248,0 -0.492457,-0.0661333 -0.630629,-0.193676 -0.144076,-0.132267 -0.21021,-0.320038 -0.21021,-0.569219 0,-0.16061 0.0436952,-0.382629 0.126362,-0.664876l0.648343 -2.20248c-0.93059,1.11246 -2.03714,2.07021 -3.32084,2.86735 -0.791238,0.497181 -1.51634,0.746362 -2.17531,0.746362 -0.624724,0 -1.10655,-0.220838 -1.4443,-0.663695 -0.453486,-0.597562 -0.680229,-1.37227 -0.680229,-2.33474 0,-1.14552 0.31059,-2.41859 0.918781,-3.82392 0.60819,-1.40651 1.42777,-2.6843 2.45638,-3.82983 1.02389,-1.14552 2.10918,-1.98636 3.2429,-2.52842 0.875086,-0.40979 1.99817,-0.615276 3.37044,-0.615276 0.348381,0 0.696762,0.0224381 1.05695,0.0673143l0.387352 -0.636533zm-2.0088 2.48472c-0.586933,-0.121638 -1.07939,-0.183048 -1.47737,-0.183048 -0.974286,0 -1.82103,0.271619 -2.54495,0.803048 -0.725105,0.536152 -1.3947,1.49863 -2.02061,2.88861 -0.62,1.3888 -0.92941,2.7717 -0.92941,4.15577 0,0.735733 0.121638,1.26716 0.370819,1.5872 0.249181,0.327124 0.575124,0.487733 0.974286,0.487733 0.746362,0 1.5435,-0.399162 2.40088,-1.20693 0.852648,-0.801867 1.47737,-1.96392 1.87653,-3.47436l1.34983 -5.05802z"/>
 </g>
</svg>
