<?xml-stylesheet type="text/css" href="/styles/styles.min.css"?>
<svg display="none" xmlns="http://www.w3.org/2000/svg" xmlns:xlink="http://www.w3.org/1999/xlink">
    <symbol id="close" viewBox="0 0 20 21">
        <path d="M19.3588 16.5662L13.1187 10.2029L19.3588 3.83955C20.2137 2.96615 20.2137 1.53695 19.3588 0.663556C18.4927 -0.221185 17.1048 -0.221185 16.2387 0.663556L10.0097 7.02689L3.7696 0.663556C2.90354 -0.209842 1.51561 -0.221185 0.649549 0.663556C-0.205413 1.5483 -0.205413 2.96615 0.649549 3.83955L6.88966 10.2029L0.649549 16.5662C-0.216516 17.4396 -0.216516 18.8688 0.649549 19.7422C1.08258 20.1846 1.64885 20.4001 2.20402 20.4001C2.75919 20.4001 3.33657 20.1846 3.7585 19.7422L10.0097 13.3902L16.2498 19.7536C16.6829 20.1959 17.238 20.4114 17.8043 20.4114C18.3706 20.4114 18.9368 20.1959 19.3588 19.7536C20.2137 18.8688 20.2137 17.4396 19.3588 16.5662Z" fill="#A0A0A0"/>
    </symbol>
    
    <symbol id="logo" viewBox="0 0 281 52.9987">       
      
        <g id="Layer_x0020_1">
        <metadata id="CorelCorpID_0Corel-Layer"/>
        <path fill="#bf9037" d="M33.8281 0.700398l30.6947 0 0 51.0912 -21.7903 0 0 -0.715752 -1.27678 0 0 -1.71733 -3.75238 0 0 -2.43308 -3.45711 0 0.00354333 -0.318899c-0.55394,-5.44019 -0.487798,-10.1174 0.0897643,-14.3457l0.101575 0 0.102756 0 0.1063 -0.0377955 2.30671 -0.859847 0.393309 -0.145276 0 -0.418113 0 -1.5756 0 -0.478349 -0.466538 -0.108662 -2.29489 -0.538586 -0.0696854 -0.0165355 -0.0673232 0 -0.0909454 0c-0.643704,-4.79648 -0.5752,-10.2508 -0.0921265,-16.2154l18.208 -1.1752 0 1.22835 0.17008 0 -7.50122 18.5529 -0.0354333 0c1.48347,2.13545 4.38546,3.83152 8.8406,3.78073 4.13506,-0.0472444 7.24256,-1.53308 8.41422,-3.59884l0.0188977 -0.00708665 -0.00590554 -0.0165355 0.00590554 -0.00944887 -0.00944887 0 -7.53429 -18.7017 0.0507877 0 0 -2.87364 -2.41419 0 0 0.360238 -17.9977 0.0673232c-0.516145,-2.94332 -0.583468,-5.93153 -0.651972,-8.77446l0.00118111 0.00118111zm12.6131 29.7828l7.3028 -18.0627 7.3276 18.1903 -14.6304 -0.12756 0 0z"/>
        <path fill="white" d="M30.7183 0.700398l-30.6958 0 0 51.0912 21.7903 0 0 -0.715752 1.27796 0 0 -1.71733 3.75238 0 0 -2.43308 3.45711 0 -0.00354333 -0.318899c0.55394,-5.44019 0.487798,-10.1174 -0.0909454,-14.3457l-0.100394 0 -0.102756 0 -0.107481 -0.0377955 -2.30552 -0.859847 -0.393309 -0.145276 0 -0.418113 0 -1.5756 0 -0.478349 0.465357 -0.108662 2.29608 -0.538586 0.0696854 -0.0165355 0.0673232 0 0.0909454 0c0.641342,-4.79648 0.572838,-10.2508 0.0909454,-16.2154l-18.2068 -1.1752 0 1.22835 -0.171261 0 7.50122 18.5529 0.0366144 0c-1.48347,2.13545 -4.38664,3.83152 -8.84178,3.78073 -4.13388,-0.0472444 -7.24256,-1.53308 -8.41422,-3.59884l-0.0188977 -0.00708665 0.00590554 -0.0165355 -0.00590554 -0.00944887 0.01063 0 7.53429 -18.7017 -0.0531499 0 0 -2.87364 2.41537 0 0 0.361419 17.9966 0.0661421c0.516145,-2.94332 0.583468,-5.93153 0.653153,-8.77446l0 0.00118111zm-12.6142 29.7828l-14.6292 0.12756 7.3276 -18.1903 7.30162 18.0615 0 0.00118111z"/>
        <path fill="white" d="M76.3067 27.5151c-1.95355,-2.43545 -3.86931,-4.47758 -5.75791,-6.13704l-0.0578743 -0.587011c1.93584,-1.65828 3.87404,-3.70041 5.81578,-6.13586l0.751185 0.407483c-0.937801,1.96537 -2.06576,3.94727 -3.38033,5.94216 1.31457,2.05985 2.44253,4.09254 3.38033,6.10279l-0.751185 0.407483 0 0zm6.60004 0c-1.95237,-2.43545 -3.86931,-4.47758 -5.75791,-6.13704l-0.0590554 -0.587011c1.9382,-1.65828 3.87404,-3.70041 5.81696,-6.13586l0.751185 0.407483c-0.938982,1.96537 -2.06576,3.94727 -3.38033,5.94216 1.31457,2.05985 2.44135,4.09254 3.38033,6.10279l-0.751185 0.407483 0 0zm7.30752 -20.1852l-1.03583 4.08664 -0.627169 0.100394 -0.960242 -5.16971 0.0897643 -0.11693c2.46379,-0.5752 4.69609,-0.865753 6.69689,-0.865753 3.8386,0 6.7146,0.849217 8.62328,2.54647 1.91576,1.69135 2.87246,4.55672 2.87246,8.57721 0,4.05829 -1.05237,7.17996 -3.16183,9.35675 -2.10356,2.18387 -5.03271,3.27167 -8.78391,3.27167 -2.10946,0 -4.24372,-0.340159 -6.40161,-1.02638l-0.0909454 -0.118111 0.79843 -5.64452 0.708665 -0.128741 1.13268 4.80829c1.27678,0.47953 2.60789,0.719295 3.99215,0.719295 2.75789,0 4.82247,-0.770083 6.20791,-2.30552 1.38426,-1.53544 2.11419,-4.12561 2.18387,-7.7717l-10.5319 0 0 -1.53544 10.4882 0c-0.160631,-3.36144 -0.943706,-5.76736 -2.36104,-7.23075 -1.41615,-1.46221 -3.476,-2.19568 -6.19137,-2.19568 -1.1752,0 -2.38702,0.218505 -3.64845,0.642523l0 0zm23.3458 16.9619c0,0.654334 0,1.20591 0.00590554,1.65946 0.00590554,0.452365 0.01063,0.804335 0.0224411,1.05473 0.02126,0.307088 0.154725,0.496066 0.396853,0.5752l1.57206 0.474806 0.0318899 0.67087c-1.28268,-0.0342522 -2.43072,-0.0507877 -3.44529,-0.0507877 -1.04646,0 -2.26891,0.0165355 -3.6638,0.0507877l-0.075591 -0.67087 1.81891 -0.557483c0.251576,-0.102756 0.386223,-0.268112 0.396853,-0.510239 0.01063,-0.217324 0.0165355,-0.496066 0.0224411,-0.842131 0.00472444,-0.34134 0.00944887,-0.775989 0.00944887,-1.30158l0 -6.8339c0,-0.653153 -0.00472444,-1.20591 -0.00944887,-1.65237 -0.00590554,-0.446459 -0.0118111,-0.79843 -0.0224411,-1.05001 -0.02126,-0.278742 -0.154725,-0.474806 -0.396853,-0.569295l-1.81891 -0.558665 -0.0318899 -0.669689c1.42206,0.0330711 2.66104,0.0507877 3.70632,0.0507877 1.03111,0 2.16852,-0.0177166 3.4134,-0.0507877l0.064961 0.669689 -1.57206 0.474806c-0.252757,0.100394 -0.387404,0.268112 -0.396853,0.507877 -0.0118111,0.218505 -0.0165355,0.497247 -0.0224411,0.843312 -0.00590554,0.340159 -0.00590554,0.775989 -0.00590554,1.3004l0 3.09332 0.864572 0c0.61772,0 1.14213,-0.0496066 1.57796,-0.139371 0.434648,-0.0944887 0.804335,-0.268112 1.09961,-0.524412 0.300002,-0.257482 0.552759,-0.620082 0.757091,-1.08898 0.203151,-0.4689 0.390947,-1.07717 0.557483,-1.8319 0.177166,-0.797249 0.337797,-1.41733 0.477168,-1.8697 0.145276,-0.45827 0.316537,-0.792524 0.519688,-1.01103 0.204332,-0.217324 0.467719,-0.35197 0.784256,-0.407483 0.321262,-0.0555121 0.746461,-0.0838587 1.26615,-0.0838587 0.61772,0 1.41615,0.0283466 2.39529,0.0838587l0.0590554 0.849217c-0.576381,0 -1.063,0.0779532 -1.45985,0.22323 -0.399215,0.145276 -0.741736,0.340159 -1.0252,0.579925 -0.278742,0.240946 -0.52205,0.519688 -0.71339,0.832682 -0.193702,0.318899 -0.370868,0.647248 -0.525593,0.982683 -0.167717,0.35197 -0.333073,0.686224 -0.493704,1.0063 -0.167717,0.322443 -0.338978,0.630712 -0.531499,0.915359 -0.187796,0.290553 -0.398034,0.569295 -0.62835,0.826776 -0.230316,0.262206 -0.487798,0.501971 -0.76654,0.719295 0.418113,0.558665 0.831501,1.16221 1.24961,1.80946 0.413388,0.647248 0.804335,1.27324 1.17048,1.87088 0.396853,0.657878 0.77717,1.24961 1.13741,1.78584 0.364963,0.536223 0.72402,0.972053 1.07717,1.30631 0.285828,0.263387 0.56457,0.44764 0.843312,0.548035 0.274017,0.105119 0.611814,0.200789 0.998037,0.289372l0.0590554 0.636618c-0.246852,0.0448821 -0.520869,0.0732288 -0.804335,0.0897643 -0.290553,0.0165355 -0.59646,0.0224411 -0.922446,0.0224411 -0.334254,0 -0.623626,-0.00590554 -0.870477,-0.0224411 -0.246852,-0.0165355 -0.467719,-0.0448821 -0.66024,-0.0838587 -0.198426,-0.0389766 -0.369687,-0.0897643 -0.531499,-0.161812 -0.154725,-0.0720476 -0.311813,-0.155906 -0.466538,-0.251576 -0.359057,-0.239765 -0.71339,-0.608271 -1.06182,-1.09961 -0.354333,-0.491341 -0.714571,-1.0441 -1.07953,-1.66891 -0.305907,-0.520869 -0.616539,-1.05119 -0.934257,-1.59332 -0.321262,-0.540948 -0.664964,-1.07127 -1.02993,-1.59568 -0.0956698,-0.140552 -0.181891,-0.263387 -0.257482,-0.368506 -0.0803154,-0.101575 -0.166536,-0.188977 -0.251576,-0.263387 -0.0921265,-0.0673232 -0.193702,-0.122835 -0.316537,-0.150001 -0.118111,-0.0342522 -0.274017,-0.0507877 -0.461814,-0.0507877l-1.10079 0 0 2.78033zm23.9588 3.22325c-0.648429,0.457089 -1.45395,0.843312 -2.41537,1.15512 -0.954336,0.307088 -1.90867,0.464176 -2.85002,0.464176 -2.26419,0 -4.05475,-0.693311 -5.37523,-2.07285 -1.32048,-1.37954 -1.98072,-3.21616 -1.98072,-5.51696 0,-2.50041 0.74528,-4.52247 2.24883,-6.07917 1.49647,-1.55316 3.43348,-2.32915 5.81696,-2.32915 1.53899,0 3.03191,0.323624 4.47522,0.982683 -0.343703,1.45749 -0.654334,2.95395 -0.922446,4.47758l-0.61772 0.101575 -1.27087 -3.92601c-0.484255,-0.172442 -1.0252,-0.262206 -1.63702,-0.262206 -1.56261,0 -2.78033,0.56457 -3.66026,1.70316 -0.879926,1.13386 -1.32048,2.62915 -1.32048,4.49412 0,2.19568 0.493704,3.8138 1.49174,4.85908 0.999218,1.05001 2.57127,1.57442 4.73388,1.57442 0.992132,0 2.05867,-0.1063 3.19254,-0.312994l0.0909454 0.687405 0 0zm7.1587 -3.17246c0,1.30631 0.01063,2.21104 0.0271655,2.71301 0.02126,0.307088 0.154725,0.497247 0.396853,0.569295l1.41024 0.429924 0.0318899 0.67087c-1.17402,-0.0342522 -2.26891,-0.0507877 -3.28348,-0.0507877 -1.03465,0 -2.25828,0.0177166 -3.6638,0.0507877l-0.075591 -0.67087 1.81891 -0.557483c0.242127,-0.0897643 0.375593,-0.257482 0.398034,-0.509058 0.02126,-0.424018 0.0307088,-1.13859 0.0307088,-2.14371l0 -6.81736c0,-1.31221 -0.00944887,-2.21576 -0.0307088,-2.71891 -0.0224411,-0.290553 -0.155906,-0.47953 -0.398034,-0.569295l-1.81891 -0.558665 -0.0318899 -0.669689c1.44332,0.0318899 2.69883,0.0496066 3.75593,0.0496066l9.21265 0c1.05827,0 2.29608,-0.0177166 3.70868,-0.0496066l0.064961 0.669689 -1.80946 0.558665c-0.252757,0.0897643 -0.387404,0.256301 -0.408664,0.507877 -0.0188977,0.424018 -0.0307088,1.13977 -0.0307088,2.14371l0 6.81736c0,1.31221 0.0118111,2.21694 0.0307088,2.71891 0.02126,0.290553 0.155906,0.480711 0.408664,0.570476l1.80946 0.557483 0.0307088 0.67087c-1.43859,-0.0342522 -2.66694,-0.0507877 -3.69687,-0.0507877 -1.03583,0 -2.12009,0.0177166 -3.25277,0.0507877l-0.0637799 -0.67087 1.39961 -0.429924c0.242127,-0.0720476 0.372049,-0.23386 0.393309,-0.485436 0.0200789,-0.428743 0.0318899,-1.14449 0.0318899,-2.16025l0 -9.97801 -6.39571 0 0 9.34139 0 0zm26.7108 3.17246c-0.890556,0.579925 -1.80828,0.993313 -2.75198,1.24489 -0.944887,0.251576 -1.82009,0.37323 -2.62442,0.37323 -2.30671,0 -4.14805,-0.687405 -5.52168,-2.05513 -1.37363,-1.36772 -2.05513,-3.26577 -2.05513,-5.70003 0,-2.41773 0.654334,-4.39963 1.96891,-5.93507 1.31576,-1.54135 3.07561,-2.30671 5.27483,-2.30671 1.84607,0 3.27758,0.5752 4.30869,1.7256 1.0252,1.1504 1.54017,2.74135 1.54017,4.76814 0,0.307088 -0.0153544,0.614177 -0.0484255,0.931895l-9.96384 0c0,2.34568 0.525593,4.02049 1.58859,5.03152 1.05591,1.00394 2.70828,1.51418 4.96302,1.51418 1.00749,0 2.0823,-0.101575 3.22443,-0.296458l0.0968509 0.703941zm-2.98821 -8.3091l0 -0.491341c0,-1.55198 -0.236222,-2.6575 -0.714571,-3.32246 -0.477168,-0.663783 -1.19056,-0.999218 -2.13072,-0.999218 -1.24961,0 -2.19922,0.4689 -2.86419,1.4067 -0.66024,0.937801 -1.02993,2.07167 -1.11615,3.40632l6.82563 0 0 0zm4.90396 -4.37247l-0.0803154 -0.552759c1.75985,-0.350789 3.42285,-0.731106 4.98546,-1.14449l0.154725 0.112205 0 1.60276c1.60395,-1.14568 3.15592,-1.71497 4.65829,-1.71497 1.94647,0 3.49254,0.675594 4.64176,2.03859 1.14686,1.35591 1.72206,3.12049 1.72206,5.28664 0,2.67521 -0.740555,4.78703 -2.21576,6.34374 -1.47521,1.55316 -3.57404,2.32915 -6.29059,2.32915 -0.804335,0 -1.64765,-0.0838587 -2.51694,-0.245671l0 3.58348c0,1.08898 0.0118111,1.85434 0.0330711,2.29017 0.02126,0.323624 0.161812,0.524412 0.424018,0.58583l2.05985 0.608271 0.0484255 0.669689c-1.63702,-0.0330711 -2.96695,-0.0496066 -3.99215,-0.0496066 -1.02993,0 -2.24293,0.0165355 -3.64845,0.0496066l-0.0637799 -0.669689 1.80828 -0.557483c0.251576,-0.0791343 0.386223,-0.245671 0.390947,-0.509058 0.0224411,-0.792524 0.0318899,-1.99844 0.0318899,-3.61183l0 -6.66264c0,-4.82955 -0.02126,-7.88272 -0.0590554,-9.15596l-2.09174 -0.625988 0 0zm5.05987 12.58c0.911816,0.211419 1.79292,0.312994 2.64568,0.312994 1.73859,0 3.04844,-0.563389 3.92837,-1.70316 0.878745,-1.13386 1.3193,-2.75907 1.3193,-4.87444 0,-1.99371 -0.418113,-3.50081 -1.25552,-4.51184 -0.842131,-1.01575 -2.0445,-1.52363 -3.61537,-1.52363 -1.13386,0 -2.14135,0.239765 -3.02246,0.720476l0 11.5796zm14.1013 -8.57131l-0.62835 0.118111 -0.739374 -5.33271 0.1063 -0.11693c2.05631,0.0330711 3.98742,0.0507877 5.7898,0.0507877l2.87836 0c1.80237,0 3.73349,-0.0177166 5.79925,-0.0507877l0.0909454 0.11693 -1.00276 5.2146 -0.62835 0.118111 -0.943706 -3.99215 -3.34844 0 0 9.34021c0,1.22363 0.01063,2.08348 0.0330711,2.58545 0.02126,0.290553 0.14882,0.480711 0.390947,0.552759l1.89922 0.608271 0.0318899 0.67087c-1.22363,-0.0342522 -2.48505,-0.0507877 -3.77364,-0.0507877 -1.03465,0 -2.29017,0.0165355 -3.75593,0.0507877l-0.0625988 -0.67087 1.90395 -0.608271c0.242127,-0.0720476 0.369687,-0.239765 0.392128,-0.491341 0.02126,-0.424018 0.0318899,-1.13859 0.0318899,-2.13781l0 -9.85045 -3.39687 0 -1.06772 3.87522 0 0zm20.7981 8.05162c0.00590554,0.291734 0.145276,0.480711 0.407483,0.552759l1.74568 0.5752 0.0472444 0.703941c-1.24961,-0.0342522 -2.4945,-0.0507877 -3.74412,-0.0507877 -1.24607,0 -2.54411,0.0177166 -3.89648,0.0507877l-0.0637799 -0.703941 1.93111 -0.608271c0.274017,-0.0838587 0.418113,-0.251576 0.428743,-0.503152 0.0165355,-0.887013 0.0271655,-1.97009 0.0271655,-3.25514l0 -13.265c0,-1.09489 -0.01063,-1.99962 -0.0271655,-2.72009 -0.01063,-0.284647 -0.139371,-0.4689 -0.380317,-0.552759l-1.94883 -0.641342 -0.0307088 -0.703941c1.35119,0.0448821 2.65041,0.0673232 3.9012,0.0673232l13.9406 0c1.24961,0 2.52639,-0.0224411 3.83624,-0.0673232l0.0637799 0.703941 -1.97954 0.641342c-0.242127,0.0838587 -0.370868,0.268112 -0.381498,0.552759 -0.0165355,0.720476 -0.0259844,1.62521 -0.0259844,2.72009l0 13.265c0,1.28623 0.00944887,2.3693 0.0259844,3.25514 0.01063,0.252757 0.154725,0.419294 0.429924,0.503152l1.89922 0.608271 0.0318899 0.703941c-1.38426,-0.0342522 -2.70356,-0.0507877 -3.96026,-0.0507877 -1.25079,0 -2.46852,0.0177166 -3.66498,0.0507877l-0.064961 -0.703941 1.77639 -0.5752c0.263387,-0.0720476 0.402758,-0.262206 0.407483,-0.552759 0.0330711,-0.875202 0.0484255,-1.95355 0.0484255,-3.2386l0 -16.3253 -10.8119 0 0 16.3253c0,1.28505 0.00944887,2.36222 0.0307088,3.2386l0.00118111 0zm17.9658 -12.0603l-0.0803154 -0.552759c1.75985,-0.350789 3.42285,-0.731106 4.98428,-1.14449l0.155906 0.112205 0 1.60276c1.60395,-1.14568 3.15474,-1.71497 4.65829,-1.71497 1.94647,0 3.49254,0.675594 4.64058,2.03859 1.14804,1.35591 1.72206,3.12049 1.72206,5.28664 0,2.67521 -0.740555,4.78703 -2.21576,6.34374 -1.47521,1.55316 -3.57404,2.32915 -6.28941,2.32915 -0.804335,0 -1.64647,-0.0838587 -2.51576,-0.245671l0 3.58348c0,1.08898 0.01063,1.85434 0.0318899,2.29017 0.0224411,0.323624 0.161812,0.524412 0.424018,0.58583l2.05985 0.608271 0.0484255 0.669689c-1.63584,-0.0330711 -2.96695,-0.0496066 -3.99097,-0.0496066 -1.03111,0 -2.24411,0.0165355 -3.64963,0.0496066l-0.064961 -0.669689 1.80946 -0.557483c0.251576,-0.0791343 0.386223,-0.245671 0.392128,-0.509058 0.0200789,-0.792524 0.0295277,-1.99844 0.0295277,-3.61183l0 -6.66264c0,-4.82955 -0.0200789,-7.88272 -0.0578743,-9.15596l-2.09293 -0.625988 0.00118111 0zm5.05987 12.58c0.911816,0.211419 1.79174,0.312994 2.64568,0.312994 1.73741,0 3.04726,-0.563389 3.92719,-1.70316 0.879926,-1.13386 1.3193,-2.75907 1.3193,-4.87444 0,-1.99371 -0.418113,-3.50081 -1.25552,-4.51184 -0.842131,-1.01575 -2.04332,-1.52363 -3.61537,-1.52363 -1.13268,0 -2.14135,0.239765 -3.02128,0.720476l0 11.5796zm16.6926 -6.46067c0,2.03859 0.370868,3.7016 1.10079,4.98074 0.73465,1.28387 1.82481,1.92639 3.27285,1.92639 1.35119,0 2.3823,-0.569295 3.08506,-1.69725 0.708665,-1.12796 1.06182,-2.79805 1.06182,-5.01381 0,-2.0823 -0.369687,-3.72404 -1.11497,-4.92522 -0.747642,-1.1941 -1.82599,-1.79765 -3.23624,-1.79765 -1.34056,0 -2.37285,0.542129 -3.09096,1.6193 -0.719295,1.08308 -1.07953,2.71891 -1.07953,4.90751l0.00118111 0zm11.7296 -0.145276c0,2.48505 -0.718114,4.4953 -2.16261,6.02602 -1.44332,1.53544 -3.27285,2.3008 -5.49452,2.3008 -2.16733,0 -3.92246,-0.720476 -5.2583,-2.16733 -1.33583,-1.44686 -2.0008,-3.33427 -2.0008,-5.66814 0,-2.40001 0.696854,-4.36065 2.09647,-5.88428 1.39607,-1.51891 3.25277,-2.27836 5.55357,-2.27836 2.18387,0 3.93782,0.698035 5.27129,2.10001 1.32993,1.4008 1.99489,3.25986 1.99489,5.57247l0 -0.00118111zm3.8953 -6.1524c1.94765,2.43427 3.86813,4.47758 5.752,6.13586l0.064961 0.587011c-1.93702,1.65828 -3.87404,3.7016 -5.81696,6.13586l-0.751185 -0.407483c0.938982,-1.96537 2.06576,-3.94254 3.37443,-5.94098 -1.30867,-2.05985 -2.43545,-4.09254 -3.37443,-6.10279l0.751185 -0.407483 0 0zm6.60004 0c1.94765,2.43427 3.86813,4.47758 5.75318,6.13586l0.0637799 0.587011c-1.93702,1.65828 -3.87522,3.7016 -5.81696,6.13586l-0.752366 -0.407483c0.940163,-1.96537 2.06576,-3.94254 3.37561,-5.94098 -1.30985,-2.05985 -2.43545,-4.09254 -3.37561,-6.10279l0.752366 -0.407483 0 0z"/>
        <g id="_371828584">
        <path id="_371827168" fill:="#BF9037" d="M92.3485 47.731l0.177166 0.47953c-1.31694,1.03229 -2.42718,1.54961 -3.33073,1.54961 -0.481892,0 -0.829139,-0.172442 -1.05001,-0.513782 -0.218505,-0.342522 -0.325986,-0.774807 -0.325986,-1.30158 0,-0.870477 0.23386,-1.7693 0.695673,-2.69057 0.464176,-0.922446 1.02638,-1.62875 1.6878,-2.12127 0.520869,-0.379136 1.1067,-0.570476 1.75631,-0.570476 0.409845,0 0.719295,0.075591 0.929533,0.231497 0.210237,0.155906 0.314175,0.342522 0.314175,0.562208 0,0.172442 -0.0566932,0.311813 -0.166536,0.419294 -0.111024,0.107481 -0.263387,0.160631 -0.464176,0.160631 -0.192521,0 -0.440554,-0.0874021 -0.742918,-0.263387 -0.316537,-0.188977 -0.577562,-0.282285 -0.788981,-0.282285 -0.269293,0 -0.539767,0.122835 -0.805516,0.367325 -0.269293,0.245671 -0.523231,0.72402 -0.76654,1.43032 -0.243308,0.707484 -0.364963,1.41733 -0.364963,2.12954 0,0.523231 0.101575,0.930714 0.305907,1.21536 0.14882,0.22323 0.359057,0.334254 0.629531,0.334254 0.644886,0 1.41733,-0.379136 2.31025,-1.13623l0 0zm1.19292 -3.48663l-0.26575 -0.389766 0.615358 -0.413388c0.59646,-0.409845 1.01457,-0.673232 1.25788,-0.788981 0.13819,-0.064961 0.26575,-0.0992132 0.381498,-0.0992132 0.115749,0 0.226773,0.0685043 0.330711,0.200789 0.486617,0.610633 0.896462,1.43977 1.22717,2.48033 0.330711,1.04056 0.496066,2.04922 0.496066,3.02836 0,0.126379 -0.00354333,0.318899 -0.0165355,0.578743 0.933076,-1.71851 1.4008,-3.08151 1.4008,-4.09136 0,-0.211419 -0.0484255,-0.488979 -0.141733,-0.836225 -0.098032,-0.387404 -0.150001,-0.664964 -0.150001,-0.829139 0,-0.160631 0.0507877,-0.294096 0.154725,-0.398034 0.101575,-0.105119 0.229135,-0.158269 0.385042,-0.158269 0.192521,0 0.348427,0.0767721 0.466538,0.225592 0.118111,0.147639 0.179529,0.359057 0.179529,0.636618 0,0.712209 -0.161812,1.6004 -0.491341,2.6634 -0.324805,1.063 -0.836225,2.20513 -1.53426,3.42994 -0.699217,1.22363 -1.3382,2.1319 -1.91458,2.72482 -0.576381,0.594098 -1.13386,1.01812 -1.67363,1.2756 -0.537405,0.257482 -1.04646,0.385042 -1.52717,0.385042 -0.364963,0 -0.63898,-0.0685043 -0.825595,-0.204332 -0.183072,-0.132284 -0.27638,-0.296458 -0.27638,-0.483074 0,-0.166536 0.0732288,-0.308269 0.213781,-0.427561 0.145276,-0.118111 0.340159,-0.177166 0.583468,-0.177166 0.186615,0 0.442916,0.0366144 0.768902,0.107481 0.347246,0.0791343 0.584649,0.115749 0.712209,0.115749 0.336616,0 0.69213,-0.141733 1.0689,-0.421656 0.513782,-0.387404 0.921265,-0.848036 1.22245,-1.38308 0.300002,-0.536223 0.452365,-1.07717 0.452365,-1.62521 0,-0.76654 -0.113386,-1.6878 -0.337797,-2.76498 -0.22323,-1.07717 -0.539767,-1.9004 -0.947249,-2.46852 -0.206694,-0.294096 -0.424018,-0.440554 -0.655515,-0.440554 -0.271655,0 -0.656697,0.183072 -1.15985,0.548035l0 0zm7.76343 -6.17248l0.18071 -0.231497c3.24805,0.249214 4.87089,2.13426 4.87089,5.65751 0,1.76694 -0.389766,3.25159 -1.17284,4.45278 -0.780713,1.20237 -1.7504,1.80119 -2.91261,1.80119 -0.621263,0 -1.10197,-0.214962 -1.43623,-0.641342 -0.333073,-0.427561 -0.50079,-0.933076 -0.50079,-1.513 0,-1.2189 0.385042,-2.34686 1.15749,-3.37915 0.768902,-1.03111 1.5945,-1.54843 2.47088,-1.54843 0.513782,0 0.943706,0.253938 1.29213,0.762996 -0.00590554,-1.63465 -0.311813,-2.876 -0.916541,-3.72049 -0.603547,-0.845674 -1.61458,-1.39135 -3.03309,-1.64056l0 0zm3.65199 7.45634c0,-0.679138 -0.098032,-1.23898 -0.294096,-1.67717 -0.197245,-0.440554 -0.493704,-0.659059 -0.890556,-0.659059 -0.60709,0 -1.09607,0.393309 -1.4693,1.18465 -0.37323,0.788981 -0.559846,1.63229 -0.559846,2.52521 0,0.614177 0.098032,1.13623 0.296458,1.56969 0.200789,0.434648 0.488979,0.64961 0.870477,0.64961 0.579925,0 1.06654,-0.381498 1.45867,-1.14449 0.390947,-0.76654 0.588192,-1.58032 0.588192,-2.44844zm6.51618 1.92285l0.275198 0.363782c-1.35355,1.28741 -2.5134,1.92875 -3.47955,1.92875 -0.393309,0 -0.689768,-0.133465 -0.898824,-0.395672 -0.206694,-0.26575 -0.311813,-0.693311 -0.311813,-1.27914 0,-1.18229 0.359057,-2.35867 1.07717,-3.52915 0.806697,-1.32875 1.77048,-1.99607 2.89135,-1.99607 0.390947,0 0.689768,0.0992132 0.898824,0.294096 0.207875,0.198426 0.309451,0.466538 0.309451,0.80906 0,0.359057 -0.121654,0.712209 -0.369687,1.06064 -0.249214,0.347246 -0.693311,0.708665 -1.33465,1.08544 -0.320081,0.18071 -1.0063,0.510239 -2.05513,0.985045 -0.0484255,0.300002 -0.0744099,0.581106 -0.0744099,0.853942 0,0.390947 0.0625988,0.663783 0.186615,0.818509 0.125198,0.155906 0.305907,0.231497 0.54331,0.231497 0.225592,0 0.474806,-0.0614177 0.746461,-0.188977 0.361419,-0.172442 0.897643,-0.520869 1.59568,-1.04292l0 0.00118111zm-2.89608 -1.20237c0.887013,-0.398034 1.55434,-0.825595 2.00434,-1.28387 0.302364,-0.322443 0.453546,-0.63898 0.453546,-0.951974 0,-0.237403 -0.0614177,-0.427561 -0.185434,-0.569295 -0.124016,-0.140552 -0.284647,-0.211419 -0.485436,-0.211419 -0.204332,0 -0.401577,0.0791343 -0.59646,0.231497 -0.257482,0.206694 -0.478349,0.514964 -0.653153,0.930714 -0.25512,0.604728 -0.433467,1.22363 -0.537405,1.85434l0 0zm6.54925 -2.23584c0.865753,-0.950793 1.6878,-1.4256 2.46143,-1.4256 0.428743,0 0.751185,0.172442 0.963785,0.517326 0.2126,0.344884 0.320081,0.794886 0.320081,1.34646 0,1.30867 -0.419294,2.51931 -1.25906,3.63309 -0.839768,1.11142 -1.7693,1.66773 -2.79332,1.66773 -0.529137,0 -0.941344,-0.155906 -1.23308,-0.462995 -0.294096,-0.308269 -0.438191,-0.687405 -0.438191,-1.13386 0,-0.376774 0.0744099,-0.904729 0.224411,-1.58387l0.974415 -4.38191c0.382679,-1.72206 0.973234,-2.86773 1.77284,-3.43821 0.803154,-0.568113 1.52481,-0.85158 2.16379,-0.85158 0.183072,0 0.420475,0.0259844 0.720476,0.0826776 1.11142,0.197245 1.79883,0.296458 2.06104,0.296458 0.200789,0 0.450003,-0.144095 0.746461,-0.438191l0.249214 0.183072c-0.330711,0.569295 -0.633074,0.924808 -0.902367,1.07245 -0.271655,0.146458 -0.576381,0.219686 -0.921265,0.219686 -0.435829,0 -1.25316,-0.1063 -2.45198,-0.324805 -0.377955,-0.064961 -0.643704,-0.0992132 -0.793705,-0.0992132 -0.272836,0 -0.481892,0.133465 -0.634256,0.399215 -0.152363,0.26575 -0.336616,0.870477 -0.551578,1.81182l-0.679138 2.91025zm-0.887013 4.16459c0,0.288191 0.098032,0.531499 0.292915,0.728744 0.198426,0.200789 0.413388,0.300002 0.650791,0.300002 0.647248,0 1.20473,-0.503152 1.67127,-1.50355 0.466538,-1.00158 0.698035,-1.95119 0.698035,-2.84529 0,-0.34134 -0.064961,-0.653153 -0.197245,-0.933076 -0.133465,-0.279923 -0.331892,-0.418113 -0.597641,-0.418113 -0.282285,0 -0.621263,0.184253 -1.02284,0.551578 -0.399215,0.367325 -0.748823,0.972053 -1.04646,1.81773 -0.300002,0.845674 -0.448821,1.61221 -0.448821,2.30198l0 0zm12.7182 -0.0909454c-1.10552,1.15394 -1.92166,1.73387 -2.4508,1.73387 -0.155906,0 -0.301183,-0.0708665 -0.435829,-0.210237 -0.135828,-0.13819 -0.203151,-0.327167 -0.203151,-0.570476 0,-0.279923 0.0566932,-0.644886 0.166536,-1.09489l0.387404 -1.63938 -2.3008 0 -0.764178 3.22325 -1.23308 0c0.01063,-0.064961 0.0673232,-0.291734 0.172442,-0.669689 0.0791343,-0.277561 0.224411,-0.845674 0.440554,-1.70788l0.73465 -2.9575c0.0401577,-0.152363 0.0602366,-0.274017 0.0602366,-0.364963 0,-0.164174 -0.0602366,-0.249214 -0.175985,-0.249214 -0.243308,0 -0.667327,0.300002 -1.27442,0.896462l-0.364963 -0.282285c1.15867,-1.08308 2.03505,-1.62284 2.62679,-1.62284 0.302364,0 0.454727,0.200789 0.454727,0.604728 0,0.387404 -0.18071,1.26142 -0.545672,2.62679l2.31025 0 0.803154 -3.01655 1.1752 0 -0.77717 2.89254c-0.45827,1.67717 -0.687405,2.63269 -0.687405,2.86419 0,0.218505 0.0803154,0.324805 0.240946,0.324805 0.198426,0 0.653153,-0.3626 1.36536,-1.08544l0.274017 0.304726 0.00118111 0zm4.72207 -5.52405c0.539767,0 0.989769,0.214962 1.34883,0.647248 0.359057,0.429924 0.539767,1.02875 0.539767,1.79529 0,1.22717 -0.429924,2.32678 -1.29213,3.30238 -0.86221,0.975596 -1.77284,1.46103 -2.73427,1.46103 -0.590554,0 -1.06536,-0.19134 -1.42796,-0.578743 -0.361419,-0.387404 -0.542129,-0.912997 -0.542129,-1.58387 0,-1.15867 0.330711,-2.23111 0.992132,-3.21144 0.833863,-1.22245 1.87206,-1.8319 3.11577,-1.8319l0 0zm-0.703941 0.621263c-0.4689,0 -0.924808,0.336616 -1.363,1.0063 -0.438191,0.67087 -0.659059,1.59804 -0.659059,2.78033 0,0.718114 0.135828,1.28268 0.407483,1.69607 0.198426,0.304726 0.464176,0.454727 0.794886,0.454727 0.462995,0 0.884651,-0.284647 1.26615,-0.858666 0.486617,-0.746461 0.729925,-1.67127 0.729925,-2.77679 0,-0.829139 -0.113386,-1.42087 -0.336616,-1.77284 -0.22323,-0.353152 -0.503152,-0.530318 -0.839768,-0.530318l0 0.00118111zm3.54333 2.53348l3.83624 0 -0.197245 0.81969 -3.85396 0 0.214962 -0.81969zm9.04729 0.579925l-2.17206 0 0.133465 -0.494885 2.13899 0c0.064961,-0.427561 0.0968509,-0.76654 0.0968509,-1.02048 0,-1.02048 -0.308269,-1.53308 -0.927171,-1.53308 -0.689768,0 -1.42796,0.367325 -2.21104,1.10316l-0.364963 -0.291734c1.05473,-0.992132 2.09529,-1.48938 3.12167,-1.48938 0.565751,0 0.989769,0.140552 1.27205,0.42638 0.285828,0.285828 0.427561,0.768902 0.427561,1.45395 0,1.26969 -0.413388,2.47088 -1.23544,3.60474 -0.823233,1.13032 -1.79529,1.69607 -2.92443,1.69607 -0.578743,0 -1.02284,-0.135828 -1.33702,-0.409845 -0.310632,-0.274017 -0.466538,-0.59646 -0.466538,-0.972053 0,-0.197245 0.0590554,-0.354333 0.18071,-0.481892 0.121654,-0.126379 0.269293,-0.190159 0.438191,-0.190159 0.150001,0 0.283466,0.0484255 0.399215,0.14882 0.115749,0.098032 0.174804,0.22323 0.174804,0.37323 0,0.0566932 -0.00472444,0.125198 -0.0165355,0.214962 -0.00590554,0.0673232 -0.00826776,0.126379 -0.00826776,0.183072 0,0.204332 0.0814965,0.364963 0.249214,0.480711 0.162993,0.115749 0.359057,0.172442 0.578743,0.172442 1.10197,0 1.92048,-0.989769 2.45198,-2.97521l0 0.00118111zm4.78822 -0.669689c0.279923,-0.210237 0.62835,-0.571657 1.05119,-1.08662 0.788981,-0.975596 1.39961,-1.60867 1.82718,-1.89096 0.42638,-0.285828 0.842131,-0.427561 1.24607,-0.427561 0.470081,0 0.703941,0.181891 0.703941,0.545672 0,0.354333 -0.211419,0.531499 -0.63898,0.531499l-0.231497 -0.00826776c-0.121654,-0.01063 -0.211419,-0.0165355 -0.271655,-0.0165355 -0.327167,0 -0.64961,0.0933076 -0.96969,0.27638 -0.322443,0.186615 -0.738193,0.563389 -1.25198,1.1315 -0.488979,0.551578 -0.848036,0.910635 -1.07481,1.07717 0.748823,0.353152 1.26379,0.709846 1.54371,1.0689 0.279923,0.359057 0.703941,1.24371 1.28032,2.6575 0.413388,1.01221 0.80906,1.72206 1.18229,2.13426 0.375593,0.411026 0.827957,0.616539 1.36064,0.616539 0.225592,0 0.434648,-0.0566932 0.624807,-0.166536 0.19134,-0.109843 0.284647,-0.231497 0.284647,-0.361419 0,-0.0685043 -0.0307088,-0.184253 -0.0885832,-0.350789 -0.0566932,-0.147639 -0.0838587,-0.259844 -0.0838587,-0.338978 0,-0.121654 0.0484255,-0.232678 0.144095,-0.334254 0.0968509,-0.101575 0.216143,-0.155906 0.350789,-0.155906 0.161812,0 0.294096,0.0625988 0.406301,0.186615 0.1063,0.125198 0.160631,0.289372 0.160631,0.494885 0,0.413388 -0.187796,0.772445 -0.559846,1.07245 -0.37323,0.302364 -0.843312,0.452365 -1.41379,0.452365 -0.827957,0 -1.57796,-0.320081 -2.24883,-0.95906 -0.669689,-0.636618 -1.34765,-1.93702 -2.03151,-3.89648 -0.196064,-0.562208 -0.379136,-0.974415 -0.551578,-1.23544 -0.174804,-0.257482 -0.450003,-0.488979 -0.825595,-0.695673l-0.833863 3.57994 -1.25316 0 0.579925 -2.22757c0.542129,-2.10946 0.811422,-3.30238 0.811422,-3.57994 0,-0.12756 -0.0590554,-0.188977 -0.18071,-0.188977 -0.231497,0 -0.667327,0.336616 -1.30867,1.00867l-0.257482 -0.288191c0.55394,-0.602366 1.09725,-1.03701 1.63111,-1.30631 0.537405,-0.26575 0.924808,-0.401577 1.16221,-0.401577 0.220867,0 0.330711,0.0874021 0.330711,0.257482 0,0.0625988 -0.0366144,0.249214 -0.107481,0.562208l-0.497247 2.263 -0.00118111 0zm9.54218 2.10356l0.175985 0.47953c-1.31576,1.03229 -2.426,1.54961 -3.33073,1.54961 -0.480711,0 -0.829139,-0.172442 -1.04882,-0.513782 -0.218505,-0.342522 -0.325986,-0.774807 -0.325986,-1.30158 0,-0.870477 0.232678,-1.7693 0.695673,-2.69057 0.464176,-0.922446 1.02638,-1.62875 1.6878,-2.12127 0.520869,-0.379136 1.10552,-0.570476 1.75631,-0.570476 0.409845,0 0.718114,0.075591 0.929533,0.231497 0.210237,0.155906 0.314175,0.342522 0.314175,0.562208 0,0.172442 -0.0566932,0.311813 -0.166536,0.419294 -0.111024,0.107481 -0.263387,0.160631 -0.464176,0.160631 -0.192521,0 -0.440554,-0.0874021 -0.742918,-0.263387 -0.316537,-0.188977 -0.577562,-0.282285 -0.788981,-0.282285 -0.269293,0 -0.539767,0.122835 -0.805516,0.367325 -0.269293,0.245671 -0.523231,0.72402 -0.76654,1.43032 -0.243308,0.707484 -0.364963,1.41733 -0.364963,2.12954 0,0.523231 0.101575,0.930714 0.305907,1.21536 0.14882,0.22323 0.359057,0.334254 0.629531,0.334254 0.644886,0 1.41733,-0.379136 2.31025,-1.13623l0 0zm1.46812 -3.22915l-0.283466 -0.291734c0.707484,-0.673232 1.26969,-1.11969 1.69135,-1.33938 0.418113,-0.224411 0.77717,-0.334254 1.07717,-0.334254 0.115749,0 0.205513,0.0259844 0.270474,0.0767721 0.0685043,0.0472444 0.0992132,0.107481 0.0992132,0.172442 0,0.0507877 -0.01063,0.13819 -0.0389766,0.26575l-0.37323 1.66536c0.562208,-0.624807 1.26969,-1.20709 2.12127,-1.74804 0.452365,-0.282285 0.825595,-0.424018 1.11733,-0.424018 0.217324,0 0.38386,0.0708665 0.505515,0.209056 0.121654,0.135828 0.183072,0.336616 0.183072,0.594098 0,0.172442 -0.0259844,0.364963 -0.0767721,0.582287 -0.086221,0.356695 -0.318899,1.13977 -0.694492,2.3445 -0.353152,1.12442 -0.529137,1.87442 -0.529137,2.24411 0,0.111024 0.0141733,0.192521 0.0472444,0.246852 0.0354333,0.0566932 0.0838587,0.0838587 0.141733,0.0838587 0.160631,0 0.414569,-0.154725 0.75591,-0.462995 0.243308,-0.220867 0.484255,-0.427561 0.726382,-0.614177l0.210237 0.297639c-0.509058,0.565751 -1.03819,1.01812 -1.58387,1.35946 -0.347246,0.220867 -0.636618,0.330711 -0.86221,0.330711 -0.209056,0 -0.370868,-0.075591 -0.486617,-0.229135 -0.115749,-0.14882 -0.174804,-0.398034 -0.174804,-0.740555 0,-0.491341 0.304726,-1.71261 0.918903,-3.66971 0.188977,-0.695673 0.282285,-1.09961 0.282285,-1.21536 0,-0.172442 -0.101575,-0.257482 -0.308269,-0.257482 -0.220867,0 -0.503152,0.115749 -0.850398,0.347246 -0.520869,0.342522 -0.953155,0.746461 -1.30158,1.21064 -0.219686,0.296458 -0.406301,0.771264 -0.556302,1.42442l-0.67087 2.89017 -1.23308 0c0.231497,-0.829139 0.433467,-1.62048 0.603547,-2.37757l0.738193 -3.14766c0.0271655,-0.126379 0.0413388,-0.217324 0.0413388,-0.274017 0,-0.146458 -0.0555121,-0.22323 -0.167717,-0.22323 -0.086221,0 -0.214962,0.0590554 -0.379136,0.174804 -0.343703,0.226773 -0.663783,0.50079 -0.960242,0.827957l0 0.00118111zm11.8938 2.94923l0.275198 0.363782c-1.35473,1.28741 -2.51458,1.92875 -3.48073,1.92875 -0.393309,0 -0.689768,-0.133465 -0.898824,-0.395672 -0.206694,-0.26575 -0.311813,-0.693311 -0.311813,-1.27796 0,-1.18229 0.359057,-2.35867 1.07717,-3.52915 0.806697,-1.32875 1.77048,-1.99607 2.89254,-1.99607 0.390947,0 0.690949,0.098032 0.900005,0.294096 0.206694,0.198426 0.308269,0.466538 0.308269,0.807879 0,0.360238 -0.121654,0.712209 -0.369687,1.06182 -0.249214,0.347246 -0.693311,0.708665 -1.33465,1.08544 -0.321262,0.18071 -1.0063,0.509058 -2.05631,0.983864 -0.0484255,0.300002 -0.0744099,0.582287 -0.0744099,0.853942 0,0.392128 0.0625988,0.663783 0.186615,0.81969 0.125198,0.155906 0.305907,0.231497 0.54331,0.231497 0.225592,0 0.474806,-0.0614177 0.746461,-0.188977 0.361419,-0.172442 0.897643,-0.520869 1.59686,-1.04292l0 0zm-2.89726 -1.20237c0.888194,-0.398034 1.55552,-0.825595 2.00434,-1.28387 0.302364,-0.322443 0.454727,-0.63898 0.454727,-0.951974 0,-0.237403 -0.0602366,-0.427561 -0.186615,-0.569295 -0.124016,-0.140552 -0.284647,-0.211419 -0.485436,-0.211419 -0.204332,0 -0.401577,0.0791343 -0.59646,0.231497 -0.257482,0.206694 -0.478349,0.514964 -0.653153,0.930714 -0.25512,0.604728 -0.433467,1.22363 -0.537405,1.85434l0 0zm4.44806 -1.63111l-0.324805 -0.334254c0.503152,-0.598822 1.00394,-1.04528 1.50119,-1.33111 0.497247,-0.288191 0.927171,-0.432286 1.29213,-0.432286 0.13819,0 0.245671,0.0366144 0.324805,0.103938 0.0826776,0.0708665 0.121654,0.17008 0.121654,0.302364 0,0.161812 -0.0177166,0.325986 -0.054331,0.492522 -0.0366144,0.17008 -0.147639,0.568113 -0.336616,1.19883 0.845674,-0.845674 1.42206,-1.36891 1.73269,-1.56615 0.518507,-0.336616 0.994494,-0.506696 1.42206,-0.506696 0.284647,0 0.520869,0.133465 0.71339,0.399215 0.196064,0.26575 0.291734,0.663783 0.291734,1.20119 0,1.33465 -0.416931,2.60671 -1.25079,3.80908 -0.833863,1.20473 -1.75867,1.8071 -2.76734,1.8071 -0.399215,0 -0.794886,-0.107481 -1.1941,-0.322443l-0.703941 2.73427c-0.0425199,0.164174 -0.064961,0.300002 -0.064961,0.40512 0,0.203151 0.0767721,0.349608 0.232678,0.438191 0.237403,0.13819 0.738193,0.251576 1.49765,0.34134l-0.1063 0.413388c-0.888194,-0.0708665 -1.58977,-0.107481 -2.09529,-0.107481 -0.525593,0 -1.20473,0.0366144 -2.03859,0.107481l0.1063 -0.413388c0.421656,-0.0448821 0.72402,-0.160631 0.916541,-0.350789 0.188977,-0.186615 0.342522,-0.519688 0.45827,-1.00158l1.50119 -6.28822c0.279923,-1.1693 0.421656,-1.82127 0.421656,-1.95355 0,-0.144095 -0.0685043,-0.214962 -0.206694,-0.214962 -0.243308,0 -0.707484,0.356695 -1.39135,1.0689l0.00118111 0zm1.67363 3.90711c0.435829,0.438191 0.882288,0.656697 1.34056,0.656697 0.664964,0 1.24371,-0.518507 1.7445,-1.54961 0.50079,-1.03229 0.748823,-2.04214 0.748823,-3.02246 0,-0.316537 -0.0696854,-0.55394 -0.211419,-0.718114 -0.141733,-0.161812 -0.328348,-0.243308 -0.565751,-0.243308 -0.26575,0 -0.565751,0.129922 -0.896462,0.389766 -0.51142,0.401577 -0.904729,0.803154 -1.17638,1.19883 -0.19134,0.288191 -0.376774,0.786619 -0.546853,1.49292l-0.43701 1.7941 0 0.00118111zm5.89019 -4.05711l-0.249214 -0.330711c0.545672,-0.548035 1.06654,-0.949612 1.55788,-1.21064 0.492522,-0.259844 0.876383,-0.389766 1.15985,-0.389766 0.115749,0 0.203151,0.0259844 0.259844,0.0767721 0.0590554,0.0472444 0.0874021,0.118111 0.0874021,0.205513 0,0.111024 -0.0448821,0.322443 -0.132284,0.63898 -0.12756,0.464176 -0.214962,0.829139 -0.26575,1.10079 1.3252,-1.34646 2.33741,-2.02206 3.04136,-2.02206 0.181891,0 0.320081,0.0507877 0.413388,0.150001 0.0933076,0.0992132 0.141733,0.257482 0.141733,0.472444 0,0.231497 -0.0826776,0.627169 -0.249214,1.18465 0.630712,-0.656697 1.17638,-1.12323 1.63938,-1.39725 0.464176,-0.271655 0.825595,-0.409845 1.08662,-0.409845 0.231497,0 0.409845,0.0685043 0.537405,0.200789 0.126379,0.133465 0.19134,0.336616 0.19134,0.610633 0,0.166536 -0.0283466,0.361419 -0.0850398,0.588192 -0.0531499,0.229135 -0.256301,0.918903 -0.604728,2.07285 -0.434648,1.43032 -0.653153,2.2819 -0.653153,2.55828 0,0.188977 0.0767721,0.282285 0.231497,0.282285 0.105119,0 0.206694,-0.0318899 0.305907,-0.098032 0.328348,-0.232678 0.661421,-0.520869 1.00394,-0.86221l0.274017 0.296458c-0.115749,0.0956698 -0.336616,0.288191 -0.655515,0.579925 -0.441735,0.398034 -0.746461,0.647248 -0.910635,0.746461 -0.320081,0.188977 -0.590554,0.282285 -0.811422,0.282285 -0.166536,0 -0.314175,-0.0814965 -0.438191,-0.245671 -0.12756,-0.161812 -0.192521,-0.387404 -0.192521,-0.673232 0,-0.26575 0.0401577,-0.576381 0.115749,-0.931895 0.0767721,-0.357876 0.305907,-1.15631 0.679138,-2.39883 0.282285,-0.931895 0.424018,-1.49883 0.424018,-1.69843 0,-0.187796 -0.0826776,-0.281104 -0.249214,-0.281104 -0.13819,0 -0.322443,0.0685043 -0.552759,0.206694 -0.474806,0.285828 -0.874021,0.636618 -1.1941,1.05237 -0.219686,0.284647 -0.41575,0.742918 -0.579925,1.36536 -0.369687,1.36654 -0.646067,2.47679 -0.826776,3.339l-1.17638 0 1.2319 -5.06105c0.0885832,-0.364963 0.133465,-0.574019 0.133465,-0.630712 0,-0.0874021 -0.0224411,-0.154725 -0.064961,-0.200789 -0.0460633,-0.0472444 -0.107481,-0.0708665 -0.192521,-0.0708665 -0.146458,0 -0.381498,0.11693 -0.695673,0.348427 -0.545672,0.389766 -0.938982,0.771264 -1.17875,1.13741 -0.239765,0.367325 -0.446459,0.927171 -0.618901,1.67954l-0.636618 2.79805 -1.18465 0 0.935438 -3.94963c0.277561,-1.14568 0.413388,-1.76458 0.413388,-1.86615 0,-0.12756 -0.0484255,-0.190159 -0.147639,-0.190159 -0.213781,0 -0.655515,0.314175 -1.31694,0.944887l-0.00118111 0zm17.4875 3.61892c-1.10552,1.15394 -1.92166,1.73387 -2.45198,1.73387 -0.154725,0 -0.300002,-0.0708665 -0.435829,-0.210237 -0.134646,-0.13819 -0.20197,-0.327167 -0.20197,-0.570476 0,-0.279923 0.0566932,-0.644886 0.166536,-1.09489l0.387404 -1.63938 -2.3008 0 -0.765359 3.22325 -1.23308 0c0.0118111,-0.064961 0.0685043,-0.291734 0.173623,-0.669689 0.0791343,-0.277561 0.22323,-0.845674 0.440554,-1.70788l0.73465 -2.9575c0.0401577,-0.152363 0.0602366,-0.274017 0.0602366,-0.364963 0,-0.164174 -0.0602366,-0.249214 -0.175985,-0.249214 -0.243308,0 -0.667327,0.300002 -1.27442,0.896462l-0.364963 -0.282285c1.15867,-1.08308 2.03505,-1.62284 2.62679,-1.62284 0.302364,0 0.454727,0.200789 0.454727,0.604728 0,0.387404 -0.18071,1.26142 -0.545672,2.62679l2.31025 0 0.803154 -3.01655 1.1752 0 -0.77717 2.89254c-0.45827,1.67717 -0.687405,2.63269 -0.687405,2.86419 0,0.218505 0.0803154,0.324805 0.240946,0.324805 0.198426,0 0.653153,-0.3626 1.36536,-1.08544l0.274017 0.304726 0.00118111 0zm6.26342 -5.66578l0.545672 -0.115749 -0.622444 2.09765c-0.245671,0.831501 -0.480711,1.79292 -0.703941,2.88072 -0.121654,0.591736 -0.18071,0.973234 -0.18071,1.14213 0,0.172442 0.0673232,0.257482 0.206694,0.257482 0.0874021,0 0.227954,-0.0566932 0.424018,-0.172442 0.34134,-0.206694 0.669689,-0.45827 0.983864,-0.762996l0.26575 0.322443c-0.630712,0.574019 -1.03229,0.924808 -1.21064,1.04646 -0.353152,0.239765 -0.689768,0.420475 -1.00867,0.536223 -0.210237,0.0767721 -0.41575,0.115749 -0.614177,0.115749 -0.144095,0 -0.251576,-0.0330711 -0.322443,-0.098032 -0.0732288,-0.0685043 -0.107481,-0.164174 -0.107481,-0.291734 0,-0.0814965 0.0224411,-0.194883 0.064961,-0.338978l0.330711 -1.1256c-0.474806,0.568113 -1.04056,1.05709 -1.69607,1.46458 -0.403939,0.25512 -0.774807,0.381498 -1.11142,0.381498 -0.318899,0 -0.56457,-0.112205 -0.737012,-0.338978 -0.232678,-0.304726 -0.348427,-0.701579 -0.348427,-1.19292 0,-0.58583 0.158269,-1.23544 0.4689,-1.95355 0.311813,-0.718114 0.729925,-1.37127 1.25552,-1.9571 0.523231,-0.584649 1.07717,-1.01457 1.6571,-1.29213 0.446459,-0.209056 1.02048,-0.314175 1.72206,-0.314175 0.178347,0 0.356695,0.0118111 0.539767,0.0342522l0.198426 -0.324805 0 0zm-1.02638 1.26969c-0.300002,-0.0625988 -0.551578,-0.0933076 -0.754729,-0.0933076 -0.499609,0 -0.930714,0.13819 -1.30158,0.409845 -0.369687,0.274017 -0.712209,0.76654 -1.03111,1.47521 -0.316537,0.709846 -0.474806,1.41733 -0.474806,2.12363 0,0.376774 0.0602366,0.647248 0.188977,0.811422 0.126379,0.166536 0.294096,0.249214 0.496066,0.249214 0.381498,0 0.788981,-0.203151 1.22717,-0.616539 0.435829,-0.409845 0.75591,-1.00394 0.95906,-1.77521l0.689768 -2.58427 0.00118111 0zm2.37757 4.18113c0.13819,0.509058 0.239765,0.817327 0.304726,0.924808 0.0685043,0.107481 0.17008,0.160631 0.308269,0.160631 0.257482,0 0.559846,-0.284647 0.902367,-0.852761 0.347246,-0.579925 0.647248,-0.973234 0.901186,-1.17638 0.25512,-0.204332 0.679138,-0.381498 1.26969,-0.529137l0 -0.109843 -0.217324 0c-0.701579,0 -1.22717,-0.133465 -1.57796,-0.401577 -0.350789,-0.26575 -0.525593,-0.600003 -0.525593,-0.998037 0,-0.616539 0.381498,-1.12796 1.14804,-1.53308 0.762996,-0.401577 1.77521,-0.602366 3.03663,-0.602366l1.48111 0.0318899 -0.77717 2.89254c-0.452365,1.67599 -0.679138,2.63151 -0.679138,2.86419 0,0.217324 0.0767721,0.324805 0.231497,0.324805 0.198426,0 0.653153,-0.3626 1.36654,-1.08544l0.274017 0.304726c-1.10552,1.15394 -1.92048,1.73387 -2.44608,1.73387 -0.18071,0 -0.333073,-0.0767721 -0.45827,-0.226773 -0.124016,-0.146458 -0.186615,-0.368506 -0.186615,-0.662602 0,-0.291734 0.054331,-0.644886 0.164174,-1.06064l0.381498 -1.43269c-0.462995,0 -0.839768,0.132284 -1.12442,0.392128 -0.288191,0.263387 -0.662602,0.800792 -1.11969,1.61221 -0.523231,0.916541 -1.11142,1.37717 -1.76458,1.37717 -0.259844,0 -0.492522,-0.0909454 -0.695673,-0.26575 -0.203151,-0.178347 -0.407483,-0.690949 -0.612996,-1.54135l0.41575 -0.141733 0 0.00118111zm5.68232 -4.37365c-0.333073,-0.0933076 -0.698035,-0.141733 -1.10197,-0.141733 -0.470081,0 -0.894099,0.139371 -1.2756,0.41575 -0.381498,0.277561 -0.571657,0.633074 -0.571657,1.07717 0,0.76654 0.509058,1.1504 1.53308,1.1504 0.168899,0 0.421656,-0.0188977 0.752366,-0.0590554l0.663783 -2.44253zm10.6512 4.23309l0.175985 0.47953c-1.31576,1.03229 -2.426,1.54961 -3.33073,1.54961 -0.480711,0 -0.829139,-0.172442 -1.04882,-0.513782 -0.218505,-0.342522 -0.325986,-0.774807 -0.325986,-1.30158 0,-0.870477 0.232678,-1.7693 0.695673,-2.69057 0.464176,-0.922446 1.0252,-1.62875 1.6878,-2.12127 0.520869,-0.379136 1.10552,-0.570476 1.75631,-0.570476 0.409845,0 0.718114,0.075591 0.929533,0.231497 0.210237,0.155906 0.314175,0.342522 0.314175,0.562208 0,0.172442 -0.0566932,0.311813 -0.167717,0.419294 -0.111024,0.107481 -0.263387,0.160631 -0.464176,0.160631 -0.192521,0 -0.439373,-0.0874021 -0.742918,-0.263387 -0.315356,-0.188977 -0.577562,-0.282285 -0.7878,-0.282285 -0.269293,0 -0.540948,0.122835 -0.806697,0.367325 -0.268112,0.245671 -0.52205,0.72402 -0.76654,1.43032 -0.243308,0.707484 -0.364963,1.41733 -0.364963,2.12954 0,0.523231 0.101575,0.930714 0.305907,1.21536 0.14882,0.22323 0.359057,0.334254 0.629531,0.334254 0.644886,0 1.41733,-0.379136 2.31025,-1.13623l0.00118111 0zm8.48272 0.338978c-1.03819,1.12205 -1.86615,1.6819 -2.48623,1.6819 -0.168899,0 -0.333073,-0.0791343 -0.491341,-0.239765 -0.158269,-0.161812 -0.269293,-0.577562 -0.336616,-1.24961l-0.338978 -3.46419c-0.794886,2.1319 -1.45749,3.49254 -1.98072,4.07719 -0.524412,0.58583 -1.09725,0.876383 -1.71615,0.876383 -0.263387,0 -0.480711,-0.0708665 -0.650791,-0.211419 -0.166536,-0.139371 -0.251576,-0.325986 -0.251576,-0.557483 0,-0.220867 0.0708665,-0.401577 0.2126,-0.54331 0.141733,-0.140552 0.310632,-0.211419 0.509058,-0.211419 0.103938,0 0.259844,0.0425199 0.462995,0.124016 0.198426,0.0767721 0.356695,0.115749 0.472444,0.115749 0.277561,0 0.545672,-0.132284 0.811422,-0.398034 0.26575,-0.263387 0.664964,-1.01812 1.19883,-2.25946 0.531499,-1.24371 0.797249,-1.93111 0.797249,-2.0634 0,-0.17008 -0.075591,-0.257482 -0.231497,-0.257482 -0.336616,0 -0.837406,0.327167 -1.49883,0.986226l-0.355514 -0.290553c1.16457,-1.07717 2.06104,-1.61458 2.69175,-1.61458 0.237403,0 0.392128,0.0732288 0.4689,0.219686 0.0732288,0.145276 0.132284,0.461814 0.178347,0.947249l0.330711 3.98388c0.064961,0.752366 0.245671,1.12796 0.537405,1.12796 0.150001,0 0.396853,-0.154725 0.738193,-0.462995 0.348427,-0.316537 0.58583,-0.520869 0.712209,-0.614177l0.216143 0.297639 0 0zm-0.0826776 -3.82561l-0.26575 -0.389766 0.614177 -0.413388c0.59646,-0.409845 1.01457,-0.673232 1.25788,-0.788981 0.13819,-0.064961 0.26575,-0.0992132 0.381498,-0.0992132 0.115749,0 0.226773,0.0685043 0.330711,0.200789 0.486617,0.610633 0.896462,1.43977 1.22717,2.48033 0.330711,1.04056 0.497247,2.04922 0.497247,3.02836 0,0.126379 -0.00472444,0.318899 -0.0165355,0.578743 0.933076,-1.71851 1.39961,-3.08151 1.39961,-4.09136 0,-0.211419 -0.0484255,-0.488979 -0.141733,-0.836225 -0.098032,-0.387404 -0.14882,-0.664964 -0.14882,-0.829139 0,-0.160631 0.0507877,-0.294096 0.154725,-0.398034 0.101575,-0.105119 0.229135,-0.158269 0.385042,-0.158269 0.192521,0 0.347246,0.0767721 0.466538,0.225592 0.118111,0.147639 0.178347,0.359057 0.178347,0.636618 0,0.712209 -0.161812,1.6004 -0.49016,2.6634 -0.324805,1.063 -0.836225,2.20513 -1.53426,3.42994 -0.699217,1.22363 -1.3382,2.1319 -1.91458,2.72482 -0.577562,0.594098 -1.13505,1.01812 -1.67481,1.2756 -0.537405,0.257482 -1.04646,0.385042 -1.52717,0.385042 -0.364963,0 -0.63898,-0.0685043 -0.825595,-0.204332 -0.183072,-0.132284 -0.27638,-0.296458 -0.27638,-0.483074 0,-0.166536 0.0732288,-0.308269 0.213781,-0.427561 0.145276,-0.118111 0.34134,-0.177166 0.584649,-0.177166 0.186615,0 0.442916,0.0366144 0.768902,0.107481 0.347246,0.0791343 0.584649,0.115749 0.712209,0.115749 0.336616,0 0.69213,-0.141733 1.0689,-0.421656 0.513782,-0.387404 0.921265,-0.848036 1.22127,-1.38308 0.300002,-0.536223 0.452365,-1.07717 0.452365,-1.62521 0,-0.76654 -0.113386,-1.6878 -0.336616,-2.76498 -0.22323,-1.07717 -0.539767,-1.9004 -0.947249,-2.46852 -0.206694,-0.294096 -0.424018,-0.440554 -0.655515,-0.440554 -0.271655,0 -0.656697,0.183072 -1.15985,0.548035l0 0z"/>
        <path id="_371826808" fill="#BF9037" d="M242.166 49.5286l-1.25788 0 0.944887 -3.69569c-0.433467,0.161812 -0.800792,0.385042 -1.11142,0.673232 -0.308269,0.285828 -0.712209,0.748823 -1.21064,1.39135 -0.598822,0.77717 -1.05709,1.29213 -1.36772,1.54371 -0.314175,0.251576 -0.63898,0.379136 -0.975596,0.379136 -0.263387,0 -0.497247,-0.0909454 -0.703941,-0.26575 -0.204332,-0.178347 -0.407483,-0.690949 -0.614177,-1.54135l0.41575 -0.150001c0.150001,0.568113 0.263387,0.892918 0.340159,0.973234 0.075591,0.0814965 0.172442,0.120473 0.282285,0.120473 0.330711,0 0.788981,-0.38386 1.37363,-1.1504 0.72402,-0.943706 1.26142,-1.51773 1.61458,-1.71851 0.353152,-0.204332 0.938982,-0.37323 1.75631,-0.509058 -0.243308,-0.2126 -0.480711,-0.590554 -0.71339,-1.14568 -0.225592,-0.539767 -0.418113,-0.878745 -0.578743,-1.01693 -0.158269,-0.139371 -0.325986,-0.206694 -0.494885,-0.206694 -0.0909454,0 -0.237403,0.0448821 -0.450003,0.13819 -0.146458,0.0732288 -0.279923,0.109843 -0.395672,0.109843 -0.370868,0 -0.557483,-0.166536 -0.557483,-0.497247 0,-0.220867 0.111024,-0.403939 0.325986,-0.551578 0.214962,-0.146458 0.448821,-0.219686 0.703941,-0.219686 0.381498,0 0.709846,0.132284 0.989769,0.398034 0.27638,0.26575 0.55394,0.81969 0.822052,1.66654 0.139371,0.418113 0.348427,0.811422 0.630712,1.17638l0.647248 -2.6445 1.21654 0 -0.703941 2.82521c0.270474,-0.203151 0.612996,-0.559846 1.02638,-1.07008 0.807879,-0.992132 1.42678,-1.62875 1.86025,-1.90513 0.432286,-0.274017 0.842131,-0.413388 1.22127,-0.413388 0.462995,0 0.695673,0.181891 0.695673,0.545672 0,0.354333 -0.206694,0.531499 -0.620082,0.531499 -0.0673232,0 -0.13819,-0.00236222 -0.217324,-0.00826776 -0.118111,-0.01063 -0.203151,-0.0165355 -0.245671,-0.0165355 -0.399215,0 -0.760634,0.103938 -1.08544,0.310632 -0.325986,0.206694 -0.721658,0.574019 -1.18465,1.09725 -0.492522,0.546853 -0.85158,0.904729 -1.07835,1.07835 0.751185,0.353152 1.26733,0.709846 1.54489,1.0689 0.279923,0.359057 0.706303,1.24371 1.28032,2.6575 0.428743,1.05473 0.837406,1.77875 1.22127,2.16615 0.385042,0.389766 0.817327,0.584649 1.29804,0.584649 0.243308,0 0.45827,-0.0566932 0.650791,-0.166536 0.188977,-0.109843 0.284647,-0.235041 0.284647,-0.370868 0,-0.0791343 -0.0283466,-0.183072 -0.0850398,-0.316537 -0.0590554,-0.144095 -0.0897643,-0.26575 -0.0897643,-0.363782 0,-0.121654 0.0484255,-0.232678 0.144095,-0.334254 0.0992132,-0.101575 0.214962,-0.155906 0.353152,-0.155906 0.144095,0 0.274017,0.0602366 0.390947,0.175985 0.115749,0.115749 0.172442,0.285828 0.172442,0.505515 0,0.414569 -0.186615,0.772445 -0.559846,1.07245 -0.370868,0.302364 -0.843312,0.452365 -1.41143,0.452365 -0.641342,0 -1.22363,-0.18071 -1.74686,-0.542129 -0.526775,-0.361419 -0.967328,-0.869296 -1.32639,-1.52127 -0.359057,-0.650791 -0.758272,-1.58032 -1.19292,-2.79096 -0.259844,-0.728744 -0.474806,-1.18938 -0.644886,-1.3819 -0.172442,-0.196064 -0.414569,-0.376774 -0.720476,-0.549216l-0.863391 3.57994 0 -0.00236222zm8.1343 -5.51578c0.865753,-0.950793 1.6878,-1.4256 2.46025,-1.4256 0.429924,0 0.752366,0.172442 0.963785,0.517326 0.2126,0.344884 0.321262,0.794886 0.321262,1.34646 0,1.30867 -0.419294,2.51931 -1.26024,3.63309 -0.839768,1.11142 -1.7693,1.66773 -2.79332,1.66773 -0.527956,0 -0.941344,-0.155906 -1.2319,-0.462995 -0.294096,-0.308269 -0.438191,-0.687405 -0.438191,-1.13386 0,-0.376774 0.0732288,-0.904729 0.22323,-1.58387l0.975596 -4.38191c0.381498,-1.72206 0.973234,-2.86891 1.77284,-3.43821 0.803154,-0.569295 1.52481,-0.852761 2.16379,-0.852761 0.181891,0 0.419294,0.0271655 0.720476,0.0838587 1.11142,0.197245 1.79883,0.295277 2.06104,0.295277 0.199607,0 0.448821,-0.142914 0.746461,-0.43701l0.249214 0.181891c-0.330711,0.569295 -0.634256,0.925989 -0.902367,1.07245 -0.272836,0.146458 -0.576381,0.219686 -0.921265,0.219686 -0.435829,0 -1.25316,-0.1063 -2.45316,-0.324805 -0.377955,-0.064961 -0.643704,-0.098032 -0.793705,-0.098032 -0.271655,0 -0.480711,0.133465 -0.633074,0.399215 -0.153544,0.26575 -0.336616,0.870477 -0.551578,1.81182l-0.679138 2.91025zm-0.887013 4.16459c0,0.288191 0.098032,0.531499 0.292915,0.728744 0.198426,0.200789 0.413388,0.300002 0.650791,0.300002 0.647248,0 1.20473,-0.503152 1.67127,-1.50355 0.466538,-1.00158 0.698035,-1.95119 0.698035,-2.84529 0,-0.34134 -0.064961,-0.653153 -0.197245,-0.933076 -0.133465,-0.279923 -0.331892,-0.418113 -0.597641,-0.418113 -0.282285,0 -0.621263,0.184253 -1.02284,0.551578 -0.399215,0.367325 -0.748823,0.972053 -1.04646,1.81773 -0.300002,0.845674 -0.448821,1.61221 -0.448821,2.30198l0 0zm11.1768 -5.75673l0.545672 -0.115749 -0.622444 2.09765c-0.245671,0.831501 -0.480711,1.79292 -0.703941,2.88072 -0.121654,0.591736 -0.18071,0.973234 -0.18071,1.14213 0,0.172442 0.0673232,0.257482 0.207875,0.257482 0.086221,0 0.226773,-0.0566932 0.424018,-0.172442 0.34134,-0.206694 0.669689,-0.45827 0.983864,-0.762996l0.26575 0.322443c-0.630712,0.574019 -1.03229,0.924808 -1.21064,1.04646 -0.353152,0.239765 -0.690949,0.420475 -1.00867,0.536223 -0.210237,0.0767721 -0.41575,0.115749 -0.614177,0.115749 -0.144095,0 -0.252757,-0.0330711 -0.322443,-0.098032 -0.0744099,-0.0685043 -0.107481,-0.164174 -0.107481,-0.291734 0,-0.0814965 0.0224411,-0.194883 0.064961,-0.338978l0.330711 -1.1256c-0.474806,0.568113 -1.04056,1.05709 -1.69607,1.46458 -0.403939,0.25512 -0.774807,0.381498 -1.11142,0.381498 -0.318899,0 -0.56457,-0.112205 -0.737012,-0.338978 -0.23386,-0.304726 -0.348427,-0.701579 -0.348427,-1.19292 0,-0.587011 0.158269,-1.23544 0.467719,-1.95355 0.311813,-0.719295 0.729925,-1.37245 1.25552,-1.9571 0.523231,-0.58583 1.07717,-1.01457 1.6571,-1.29213 0.446459,-0.209056 1.02166,-0.314175 1.72324,-0.314175 0.178347,0 0.356695,0.0118111 0.539767,0.0342522l0.198426 -0.324805 -0.00118111 0zm-1.02638 1.26969c-0.300002,-0.0625988 -0.551578,-0.0933076 -0.754729,-0.0933076 -0.498428,0 -0.930714,0.13819 -1.30158,0.409845 -0.369687,0.274017 -0.712209,0.76654 -1.03111,1.47521 -0.316537,0.709846 -0.474806,1.41733 -0.474806,2.12363 0,0.376774 0.0614177,0.647248 0.188977,0.811422 0.12756,0.166536 0.294096,0.249214 0.497247,0.249214 0.381498,0 0.788981,-0.203151 1.22717,-0.616539 0.435829,-0.409845 0.754729,-1.00394 0.95906,-1.77521l0.689768 -2.58427 0 0z"/>
        </g>
        </g>
    </symbol>    
</svg>