<?xml version="1.0" encoding="UTF-8"?>
<!DOCTYPE svg PUBLIC "-//W3C//DTD SVG 1.1//EN" "http://www.w3.org/Graphics/SVG/1.1/DTD/svg11.dtd">
<!-- Creator: CorelDRAW -->
<svg xmlns="http://www.w3.org/2000/svg" xml:space="preserve" width="568px" height="568px" style="shape-rendering:geometricPrecision; text-rendering:geometricPrecision; image-rendering:optimizeQuality; fill-rule:evenodd; clip-rule:evenodd"
viewBox="0 0 568 568"
 xmlns:xlink="http://www.w3.org/1999/xlink"
 version="1.0">
 <defs>
  <style type="text/css">
   <![CDATA[
    .fil0 {fill:none}
    .fil1 {fill:#BF9037;fill-rule:nonzero}
   ]]>
  </style>
 </defs>
 <g id="Layer_x0020_1">
  <metadata id="CorelCorpID_0Corel-Layer"/>
  <g id="_486902432">
  </g>
  <g id="_486907592">
   <path id="_486904088" class="fil0" d="M284 0c78.4241,0 149.424,31.7882 200.818,83.1828 51.3934,51.3934 83.1828,122.394 83.1828,200.817 0,78.4241 -31.7894,149.424 -83.1828,200.818 -51.3946,51.3946 -122.394,83.1828 -200.818,83.1828 -78.4241,0 -149.424,-31.7894 -200.818,-83.1828 -51.3934,-51.3934 -83.1828,-122.394 -83.1828,-200.818 0,-78.4241 31.7894,-149.424 83.1828,-200.817 51.3946,-51.3946 122.394,-83.1828 200.818,-83.1828zm188.489 95.5112c-48.2375,-48.2375 -114.879,-78.0733 -188.489,-78.0733 -73.6099,0 -140.251,29.8359 -188.49,78.0733 -48.2375,48.2375 -78.0733,114.879 -78.0733,188.489 0,73.6111 29.8359,140.253 78.0733,188.49 48.2386,48.2375 114.879,78.0733 188.49,78.0733 73.6099,0 140.251,-29.8359 188.489,-78.0733 48.2386,-48.2375 78.0745,-114.879 78.0745,-188.49 0,-73.6099 -29.8359,-140.251 -78.0745,-188.489z"/>
   <path id="_486902528" class="fil1" d="M284 0c78.4241,0 149.424,31.7882 200.818,83.1828 51.3934,51.3934 83.1828,122.394 83.1828,200.817 0,78.4241 -31.7894,149.424 -83.1828,200.818 -51.3946,51.3946 -122.394,83.1828 -200.818,83.1828l0 -17.4378c73.6099,0 140.251,-29.8359 188.489,-78.0745 48.2386,-48.2375 78.0745,-114.879 78.0745,-188.489 0,-73.6099 -29.8359,-140.251 -78.0745,-188.489 -48.2375,-48.2386 -114.879,-78.0745 -188.489,-78.0745l0 -17.4378 0 0.0011811z"/>
  </g>
 </g>
</svg>
