<?xml version="1.0" standalone="no"?>
<!DOCTYPE svg PUBLIC "-//W3C//DTD SVG 20010904//EN"
 "http://www.w3.org/TR/2001/REC-SVG-20010904/DTD/svg10.dtd">
<svg version="1.0" xmlns="http://www.w3.org/2000/svg"
 width="14.000000pt" height="21.000000pt" viewBox="0 0 14.000000 21.000000"
 preserveAspectRatio="xMidYMid meet">

<g transform="translate(0.000000,21.000000) scale(0.100000,-0.100000)"
fill="#000000" stroke="none">
<path d="M43 198 c-36 -17 -45 -60 -22 -105 11 -21 26 -47 34 -57 15 -20 15
-20 30 0 37 49 54 95 44 123 -8 22 -49 55 -62 50 -1 0 -12 -5 -24 -11z m45
-27 c8 -4 12 -19 10 -32 -4 -34 -52 -34 -56 0 -3 20 11 41 28 41 3 0 11 -4 18
-9z"/>
</g>
</svg>
